<?xml version="1.0" encoding="utf-8"?>
<!-- Generator: Adobe Illustrator 23.0.1, SVG Export Plug-In . SVG Version: 6.00 Build 0)  -->
<svg version="1.1" xmlns="http://www.w3.org/2000/svg" xmlns:xlink="http://www.w3.org/1999/xlink" x="0px" y="0px"
	 viewBox="0 0 1500 1500" style="enable-background:new 0 0 1500 1500;" xml:space="preserve">
<style type="text/css">
	.st0{display:none;}
	.st1{display:inline;}
	.st2{fill:#312685;}
	.st3{fill:#2272B9;}
	.st4{fill:#019FE3;}
	.st5{fill:#38ABE1;}
	.st6{display:inline;fill:none;}
	.st7{fill:none;}
	.st8{fill:#005B93;}
	.st9{fill-rule:evenodd;clip-rule:evenodd;fill:#005B93;}
	.st10{fill-rule:evenodd;clip-rule:evenodd;fill:#005489;}
	.st11{fill-rule:evenodd;clip-rule:evenodd;fill:#FFFFFF;}
	.st12{fill-rule:evenodd;clip-rule:evenodd;fill:#001529;}
	.st13{fill-rule:evenodd;clip-rule:evenodd;fill:#648FC6;}
	.st14{fill-rule:evenodd;clip-rule:evenodd;fill:#FFFFFF;stroke:#040700;stroke-width:0.1962;stroke-miterlimit:22.9256;}
	.st15{fill-rule:evenodd;clip-rule:evenodd;fill:#D7D8DC;}
	.st16{fill-rule:evenodd;clip-rule:evenodd;fill:#5B5B5F;}
	.st17{fill-rule:evenodd;clip-rule:evenodd;fill:#D5C6B1;}
	.st18{fill-rule:evenodd;clip-rule:evenodd;fill:#D3C3B0;}
	.st19{fill-rule:evenodd;clip-rule:evenodd;fill:url(#SVGID_1_);}
	.st20{fill-rule:evenodd;clip-rule:evenodd;fill:none;stroke:#B4A595;stroke-width:0.1962;stroke-miterlimit:22.9256;}
	.st21{fill-rule:evenodd;clip-rule:evenodd;fill:#B4A595;}
	.st22{fill:#FFFFFF;}
</style>
<g id="Capa_1" class="st0">
	<g class="st1">
		<path class="st2" d="M466.23,317.1c-0.89-1.9-2.42-2.17-4.25-1.65c-0.46-0.14-0.92-0.41-1.39-0.41
			c-51.99,0.01-103.98,0.02-155.97,0.08c-2.88,0-5.87-0.44-8.59,1.08c-1.69-0.4-3.31-0.42-4.72,0.82c-4.6-1.11-8.85,0.04-12.95,2.07
			c-1.64-0.39-3.21-0.26-4.65,0.69c-4.39-0.07-8.38,1.31-12.18,3.37c-2.12-0.04-3.95,0.67-5.45,2.18c-3.29,0.7-6.71,1.07-9.21,3.72
			c-1.06,0.34-2.13,0.69-3.19,1.03c0,0,0.29,0.06,0.29,0.05c-0.51,0.14-0.82,0.48-0.93,1.01c-1.78-0.03-3.2,0.59-4.09,2.21
			c-2.48,0.69-4.52,2.13-6.42,3.8c-1.52-0.2-2.34,0.63-2.85,1.93c-0.57,0.3-1.14,0.6-1.71,0.91c-0.69-0.39-0.95-0.09-0.95,0.6
			c-3.21,1.25-5.5,3.85-8.3,5.71c0,0,0.31,0.03,0.31,0.03c-23.29,18.14-39.2,41.37-47.86,69.57c-1.28,4.18-2.92,8.32-2.4,12.85
			c-1.44,2.11-1.51,4.61-1.95,7c-2.19,11.89-1.45,23.93-1.46,35.89c-0.14,100.85-0.05,201.71,0,302.56c0,2.91-0.47,5.88,0.65,8.72
			c-1.22,6.99-1.22,6.99,4.07,7.64c0.87,0.67,1.72,0.59,2.55-0.09c2.43,0.17,4.86,0.49,7.29,0.49c35.69,0.01,71.38-0.01,107.08-0.06
			c3.41,0,6.81-0.24,10.22-0.37c4.84,1.03,5.02-1.87,5.02-5.52c-0.11-47.47-0.11-94.93-0.19-142.4c0-2.64,0.74-5.39-0.72-7.91
			c0.6-3.09,0.63-6.17-0.3-9.21c0.9-0.75,1.59-1.62,1.61-2.87c1.71-0.08,3.42-0.22,5.13-0.22c35.99,0.02,71.97,0.08,107.96,0.06
			c4.63,0,9.3,0.46,13.91-0.41l0.62,0.35l0.67-0.26c1.04,0.56,2.07,0.7,3.11,0.01c3.2-0.04,3.21-2.41,3.22-4.61
			c0.02-2.69-0.24-5.37-0.24-8.06c-0.01-39.14,0.02-78.28,0-117.42c0-8.88-0.37-9.16-8.95-8.65c-1.22,0.07-2.45,0.07-3.67,0.07
			c-37.92,0-75.83,0-113.75-0.03c-7.41-0.01-7.41-0.07-8.73-7.58c1.02-1.97,1-3.98,0.18-6.01c0.61-4.12,2.11-7.96,3.59-11.81
			c1.93-1.24,3.54-2.8,4.68-4.82c5.56-2.73,11.37-4.13,17.63-4.11c27.17,0.1,54.34-0.03,81.52,0.07
			c17.36,0.06,34.73-0.31,52.09,0.48c3.71,0.17,5.36-1.45,5.72-5.14c0.16-1.7,0.02-3.42,0.03-5.14c0.1-40.14,0.21-80.28,0.27-120.42
			C467.6,318.2,467.93,316.83,466.23,317.1z"/>
		<path class="st2" d="M830.46,1101.89c-0.01-4.36,0.61-8.76-0.51-13.08c0.67-1.49,0.9-2.98,0.11-4.51
			c0.19-2.33-1.18-2.93-3.16-2.88c-3.41,0.08-6.81,0.14-10.22,0.21c-13.86,0.26-27.72-0.51-41.57,0.48
			c-16.28-0.71-32.57-0.71-48.85,0c-8.75-1.01-17.53-0.27-26.29-0.47c-5.9-0.14-5.94,0.33-5.91,6.21c0.12,26.1,0.03,52.2,0.19,78.3
			c0.03,4.41-1.83,6.81-5.88,7.88c-3.48-1.81-7.11-1.22-10.74-0.73c-4.16-2.54-9.03-1.08-13.42-2.42
			c-6.69-2.04-13.41-3.97-20.12-5.95c-2.37-2.05-5.13-3.3-8.18-3.93c-0.33-1.04-1.04-1.46-2.11-1.31c-0.64-1.23-1.63-1.9-3.03-1.95
			c-0.07-0.71-0.46-0.9-1.11-0.69c-1-0.99-2.07-1.85-3.54-2.01c-0.45-1.16-1.34-1.68-2.54-1.77c-3.32-4.15-8.43-6.33-11.65-10.59
			c0,0,0.16,0.28,0.16,0.28c-1.59-1.72-2.84-3.89-5.51-4.18l-0.06-0.35c0,0-0.24,0.12-0.24,0.12c-0.95-2.89-2.65-5.25-5.08-7.08
			c-0.27-1.55-1.13-2.67-2.5-3.42c0.08-0.72-0.25-1.13-0.93-1.29c-0.26-1.06-0.81-1.89-1.84-2.34c0.09-0.82-0.26-1.4-0.95-1.81
			c-0.33-1.34-0.47-2.81-2.29-3.02c-0.61-0.99-1.21-1.98-1.82-2.97c-1.4-5.07-2.9-10.09-5.99-14.46c0.26-1.59,0.23-3.14-0.7-4.56
			c-0.57-5.96-3.29-11.49-3.48-17.52c-0.04-5.97-0.08-11.94-0.11-17.91c0.91-2.36,0.83-4.76,0.3-7.17c0.6-1.11,0.88-2.26,0.36-3.48
			c1.78-2.46,2.93-5.13,2.62-8.25c5.79-18.01,14.89-33.96,29-46.82c1.25-1.14,2.27-2.54,3.4-3.82c0.69,0.08,0.99-0.24,0.95-0.92
			c2.36-1.17,4.47-2.68,6.22-4.67c1.68-0.11,2.89-0.96,3.74-2.38c1.13-0.15,1.96-0.7,2.33-1.82c0.83,0.05,1.42-0.29,1.7-1.1
			c1.63-0.13,3.06-0.67,4.09-2.02c8.45-4.21,17.33-7.37,26.22-10.48c1.62,0.27,3.2,0.24,4.63-0.7c4.99-0.51,9.97-1.16,14.98-1.5
			c5.74-0.4,11.51-0.53,17.26-0.77c2.02,0.6,4.03,0.6,6.05,0.01c9.74,0.74,19.49,0.78,29.23,0c1.04,0.43,2.07,0.43,3.11,0
			c12.68,0.74,25.37,0.76,38.05,0c2.03,0.59,4.05,0.59,6.08,0c13.91,1.08,27.85,0.19,41.77,0.42c6.46,0.1,6.96-0.55,6.95-7.16
			c-0.04-23.24-0.11-46.48-0.09-69.71c0.01-17.6,0.14-35.19,0.25-52.79c0.01-2.37-0.07-4.51-3.32-4.27
			c-1.6-1.01-3.26-0.93-4.95-0.28c-0.96-0.12-1.92-0.35-2.88-0.35c-45.13,0.02-90.27,0.05-135.4,0.1c-1.93,0-3.91-0.32-5.76,0.57
			c-2.85-0.63-5.67-0.45-8.46,0.32c-8.76-0.49-17.29,0.99-25.77,2.97c-3.34-0.35-6.64-0.38-9.58,1.63c-2.56-0.29-4.78,0.71-6.98,1.8
			c-2.67-0.24-5.17,0.32-7.52,1.59c-1.18-0.21-2.12,0.22-2.86,1.12c-1.16-0.15-2.2,0.09-3.06,0.92c-1.07-0.49-1.95-0.15-2.73,0.62
			c-1.27-0.24-2.37,0.06-3.26,1.03c-2.92,0.04-5.25,1.77-7.86,2.7c-2.68,0.15-4.91,1.32-6.89,3.06c-1.32-0.1-2.47,0.24-3.34,1.3
			c-0.93-0.1-1.72,0.18-2.35,0.87c-2.53,0.68-4.96,1.54-6.87,3.45c-0.76,0.39-1.52,0.78-2.28,1.17c-0.71-0.18-1.21,0.01-1.38,0.77
			c-1.11,0.01-2.06,0.35-2.76,1.26c-1.24-0.02-2.21,0.43-2.8,1.57c-15.24,7.15-28.51,17.25-41.09,28.19
			c-6.72,5.84-13.8,11.47-19.03,18.88c-0.93,0.22-1.49,0.8-1.64,1.75c-3.09,1.51-4.68,4.51-6.86,6.92l-0.55,0.14
			c0,0-0.09,0.55-0.09,0.56c-4.74,4-7.86,9.33-11.57,14.18c-22.59,29.6-36.19,63.06-42.05,99.64c-2.48,15.47-3.34,31.15-2.81,46.87
			c0.76,22.15,4.17,43.87,10.93,64.94c5.92,18.44,14.3,35.75,24.76,52.17c15.59,24.46,35.49,44.76,57.78,63.01
			c15.1,12.36,32.2,21.33,49.51,29.98c3.9,1.95,7.95,3.77,12.41,4.25c0,0,0.44,0,0.44,0c3.78,2.78,8.06,4.15,12.7,4.47
			c2.59,1.63,5.41,2.45,8.47,2.41c0.95,0.79,2.04,0.98,3.22,0.69c13.16,5.05,26.94,6.28,40.87,6.55c3.5,1.58,7.22,1,10.84,1
			c46.23,0.05,92.45,0.05,138.68,0.03c2.18,0,4.37-0.28,6.55-0.42c2.4,0.97,4.78,1.69,6.85-0.7c0.56-0.04,0.79-0.34,0.67-0.89
			c0.74-0.52,0.87-1.18,0.45-1.97c0.07-33.9,0.14-67.8,0.2-101.71c0-0.47-0.21-0.95-0.32-1.42c0.16-1.93,0.46-3.85,0.46-5.78
			C830.54,1163.74,830.54,1132.82,830.46,1101.89z M630.94,840.38l-0.02-0.03C630.93,840.36,630.94,840.38,630.94,840.38
			L630.94,840.38z"/>
		<path class="st2" d="M824.32,772.2c-0.2-33.75-0.43-67.49-0.78-101.24c-0.05-4.59,1.86-10.12-1.1-13.56
			c-3.18-3.69-8.83-1.18-13.33-1.19c-46.71-0.09-93.42,0.09-140.12,0.01c-9.27-0.02-18.58,0.63-27.81-0.81
			c-5.75-3.85-10.61-8.47-13.26-15.05c0.06-1.71,0.18-3.42,0.18-5.13c0.01-102.13,0.01-204.26,0.02-306.4
			c0-2.94-0.01-5.88,0.11-8.81c0.12-3-1.32-4.61-4.21-4.92c-1.45-0.16-2.93-0.1-4.4-0.1c-40.41,0-80.82,0.02-121.23,0.01
			c-5.96,0-6.6,0.67-6.59,6.8c0.06,48.25,0.11,96.5,0.16,144.74c0.07,64.66,0.12,129.32,0.21,193.98c0.01,5.11-0.13,10.3,2.6,14.96
			c-0.32,1.14-0.17,2.19,0.62,3.11c-0.61,2.03-0.35,3.95,0.77,5.75c-0.29,2.34,0.65,4.26,2.06,6.01c-0.36,1.14,0.14,2.01,0.9,2.79
			c-0.27,2.26,0.16,4.33,1.71,6.08c0.11,1.52,0.69,2.8,1.87,3.79c-0.01,1.94,0.48,3.66,2.11,4.88c-0.15,1.36,0.5,2.28,1.6,2.97
			c-0.14,2.09,1.03,3.7,1.99,5.37c8.81,15.29,19.6,28.95,33.29,40.21c1.16,1.2,2.26,2.49,4.04,2.81v0c1.22,1.17,2.34,2.47,3.67,3.5
			c20.65,15.91,44.09,25.26,69.93,27.42c21.9,1.83,43.94,1.06,65.92,0.37c2.37,0.87,4.83,0.42,7.24,0.43
			c22.64,0.04,45.29,0.05,67.94,0.02c2.41,0,4.87,0.44,7.24-0.44c14.66,0.71,29.33,0.66,43.99,0.02c2.48,0.72,4.96,0.74,7.45,0
			c3.1,0.09,5.63-0.43,4.78-4.52C824.79,781.47,824.35,776.82,824.32,772.2z"/>
		<path class="st2" d="M1327.98,513.71c-0.36-2.85-0.3-5.91-2.43-8.28c0.37-2.12,0.23-4.17-0.8-6.1c0.18-4.26-1.35-8.01-3.42-11.6
			c0.31-1.1,0.23-2.14-0.39-3.12c-0.92-6.09-3-11.75-6.28-16.97c-0.17-1.87-0.46-3.69-1.83-5.13c0.18-1.24-0.25-2.18-1.37-2.78
			c-0.06-1.21-0.55-2.21-1.46-3.01c0.31-1.12-0.1-1.93-1.09-2.49c0.13-1.34-0.29-2.48-1.27-3.4c-0.33-2.78-1.52-5.11-3.61-6.99
			c-0.17-1.46-1.06-2.46-2.14-3.34c-0.04-1.47-0.62-2.62-1.96-3.32c-0.06-1.15-0.48-2.08-1.58-2.6c0.02-1.03-0.36-1.83-1.29-2.33
			c0.14-0.88-0.21-1.53-0.96-1.99c-0.06-1.5-0.8-2.58-2.07-3.35c0.1-0.55-0.12-0.92-0.65-1.09c-0.2-1.48-0.99-2.52-2.35-3.14
			c-2.32-5.78-6.48-10.18-10.82-14.44c0.08-0.81-0.3-1.24-1.1-1.32c-0.8-2.05-2.17-3.62-3.98-4.83l0.09-0.5c0,0-0.55-0.05-0.55-0.05
			c-1.17-2.95-3.51-4.94-5.71-7.06c0,0,0.18,0.27,0.18,0.27c-3.31-3.57-6.42-7.34-9.96-10.66c-9.92-9.33-19.91-18.6-31.54-25.85
			c0.09-1.13-0.64-1.17-1.46-1.09c-2.01-2.05-4.32-3.63-7.02-4.63c-0.08-1.09-0.7-1.34-1.66-1.1c-0.43-0.22-0.85-0.45-1.28-0.67
			c-0.67-1.32-1.72-2-3.23-1.87c-0.86-1.29-2-2.13-3.59-2.27c-0.72-1.67-2.06-2.18-3.77-1.99c-2.08-2.24-4.74-3.39-7.68-3.99
			c-0.04-0.66-0.26-1-0.94-0.53c-1.57-1.65-3.55-2.41-5.77-2.62c-0.67-1.36-1.73-1.89-3.22-1.52c-0.8-0.35-1.59-0.7-2.39-1.05
			c-1.25-1.72-3.02-2.12-5.01-1.95c-1.86-1.99-4.23-2.79-6.87-2.97c-7.36-4.47-15.56-6.12-23.95-7.12
			c-0.92-0.88-2.01-1.05-3.21-0.74c-3.12-1.8-6.43-2.68-10.04-2.1c-2.42-1.24-4.98-1.43-7.62-1c-4.53-1.99-9.38-2.51-14.21-2.91
			c-23.91-1.98-47.74-1.37-71.35,3.21c-10.46,2.03-20.97,4.01-30.89,8.15c-0.79,0.27-1.58,0.54-2.37,0.8
			c-13.56,3.58-25.62,10.65-38.2,16.51c-1.22,0.57-2.1,1.87-3.12,2.85c-1.25,0.01-2.28,0.41-2.86,1.63
			c-2.19,0.32-3.81,1.55-5.15,3.22c-8.98,4.59-16.31,11.43-24.22,17.5c-17.02,13.06-30.82,29.09-43.54,46.15
			c-15.75,21.13-27.27,44.39-34.37,69.8c-0.75,0.27-0.99,0.77-0.7,1.51c-0.85,1.32-1.03,2.76-0.77,4.28
			c-1.07,3.95-3.22,7.65-2.82,11.95c-0.51,0.77-0.61,1.58-0.27,2.43c-0.84,1.47-1.07,3.03-0.66,4.67
			c-2.32,7.02-3.48,14.28-3.63,21.64c-0.45,21.27-0.9,42.43,3,63.64c5.9,32.06,17.86,61.34,35.89,88.34
			c9.29,13.91,20.45,26.18,32.19,38.02c11.6,11.7,24.21,22.2,38.11,30.92c28,17.55,57.92,29.94,91.08,34.53
			c15.13,2.09,30.14,2.99,45.31,3.15c19.96,0.21,39.48-3.3,58.72-7.88c8.6-2.05,17.09-5.31,25.49-8.53c15.66-6,30.3-13.85,44-23.17
			c27.35-18.6,50.65-41.57,69.06-69.19c7.31-10.97,14.4-22.14,18.73-34.76c2.13-2.45,2.85-5.41,3.05-8.56
			c2.33-2.17,3-5.01,3.21-8.03c2.01-2.35,3.09-5.01,2.76-8.15c0.82-0.89,1.06-1.93,0.83-3.09c0.84-0.78,1.18-1.67,0.61-2.77
			c0.82-0.86,1.15-1.88,1.01-3.05c3.31-7.97,4.42-16.38,5.06-24.89c1.08-1.94,1.04-3.99,0.54-6.07c1.43-1.91,1.08-4.2,1.35-6.35
			C1332.46,555.51,1330.63,534.59,1327.98,513.71z M1065.84,451.92c1.71,0.31,3.3,0.06,4.69-1.07c3.72,0.79,7.21-0.84,10.86-1.03
			c8.32-0.43,16.59-0.66,24.8,1.24c1.64,0.38,3.36,0.74,5.07,0.14c-0.22-0.32-0.49-0.57-0.79-0.79c0.3,0.22,0.57,0.46,0.79,0.79
			c1.03,0.78,2.18,0.95,3.41,0.7c1.71,1.11,3.6,1.51,5.61,1.35c2.66,2.03,5.81,2.73,9.02,3.24c0.41,0.19,0.81,0.38,1.22,0.56
			c15,7.06,27.75,17.05,38.76,29.41c8.06,9.05,14.1,19.32,18.55,30.49c5.34,13.4,6.21,27.55,5.8,41.78
			c-0.6,20.67-7.5,39.12-20.12,55.47c-7.67,9.93-17.08,18.02-26.97,25.61l-0.52-0.08c0,0-0.02,0.53-0.02,0.53
			c-0.91,0.55-1.81,1.09-2.72,1.64l-0.58-0.1c0,0-0.36,0.49-0.36,0.49c0,0-0.29,0.36-0.29,0.36c0,0,0,0,0,0
			c-1.76,0.21-3.18,1.05-4.38,2.31c-1.32-0.2-2.43,0.19-3.34,1.18c-25.32,11.73-51.11,12.94-77.72,4.4
			c-19.04-6.12-34.33-17.4-47.07-32.27c-15.51-18.11-23.18-39.37-23.57-63.24c-0.37-22.95,5.75-43.84,19.47-62.43
			c8.39-11.36,19.01-20.26,30.27-28.53l0.01,0.31c0,0,0.06-0.37,0.06-0.37c3.09-0.94,5.69-2.76,8.24-4.67
			c1.29,0.08,2.49-0.05,3.11-1.43c2.17-0.17,4.02-1.09,5.66-2.48C1057.43,455.38,1061.49,453.08,1065.84,451.92z"/>
		<g>
			<path class="st2" d="M1328.86,1009.77c-2.89-11.7-7.06-22.87-11.76-33.91c-7.52-17.65-17.33-33.91-29.6-48.68
				c-1.02-2.71-2.88-4.72-5.2-6.36c-1.05-2.32-2.7-4.12-4.83-5.5c-0.72-2.1-2.14-3.55-4.15-4.45c-0.26-1.55-1.35-2.58-2.4-3.59
				c-8.8-8.48-17.5-17.02-27.15-24.59c-18.11-14.2-37.8-25.53-59.03-34.31c-13.61-5.63-27.77-9.54-42.13-12.2
				c-22.43-4.15-45.19-4.88-67.95-3.13c-10.46,0.8-21.03,1.63-31.22,3.93c-11.6,2.63-23.23,5.55-34.34,10.1
				c-11.96,4.91-23.95,9.72-34.67,17.12c-1.08,0.01-1.9,0.49-2.5,1.36c-1.29,0.66-2.64,1.22-3.87,1.98
				c-13.56,8.46-25.72,18.63-37.48,29.44c-20.94,19.28-38.04,41.33-51.1,66.63c-13.76,26.65-21.72,54.97-24.18,84.75
				c-2.04,24.74-0.59,49.29,4.81,73.69c2.5,11.28,5.51,22.35,9.66,33.01c18.53,47.61,50.28,84.82,92.15,113.32
				c38.69,26.33,81.88,38.85,128.71,39.21c16.47,0.12,32.82-0.69,49.02-3.52c18.87-3.3,37.3-8.45,54.71-16.44
				c27.39-12.57,51.79-29.61,72.94-51.17c23.94-24.41,43-52,54.83-84.29c9.19-25.07,13.52-51,13.93-77.65
				C1336.41,1052.63,1334.13,1031.07,1328.86,1009.77z M1126.31,1168.11c-41.46,13.02-81.32,0.87-109.5-30.55
				c-9.34-10.41-16.49-22.14-20.6-35.24c-5.7-18.15-7.22-36.65-2.49-55.66c3.18-12.8,8.74-24.23,15.15-35.46
				c1.35-0.7,2.28-1.71,2.45-3.29c1.65-0.94,2.7-2.39,3.46-4.09l0.18-0.24c8.78-8.88,17.78-17.43,28.85-23.59
				c20.39-11.35,42.02-15.11,65.11-12.33c25.76,3.1,47,14.81,64.12,33.78c23.67,26.24,31.32,57.17,23.39,91.42
				C1187.55,1131.13,1163.27,1156.5,1126.31,1168.11z M1010.05,1008.24c-0.55,0.28-0.86,0.74-1.04,1.3
				C1009.19,1008.99,1009.5,1008.52,1010.05,1008.24z M1113.34,837.95C1113.34,837.95,1113.34,837.95,1113.34,837.95
				c-9.13-1.09-17.86-1.12-23.4-0.23C1095.48,836.84,1104.21,836.86,1113.34,837.95z M1084.67,839.43c0.6,0.58,1.28,0.81,1.99,0.88
				C1085.95,840.24,1085.27,840.02,1084.67,839.43C1084.67,839.43,1084.67,839.43,1084.67,839.43z"/>
			<polygon class="st2" points="1015.11,1003.95 1014.96,1003.57 1014.77,1003.82 			"/>
		</g>
		<g>
			<path class="st2" d="M283.71,224.69c0.33,2.67,0.5,5.22,0.5,7.65c0,12.7-4.1,23.17-12.29,31.41
				c-8.19,8.23-18.6,12.35-31.22,12.35c-12.7,0-23.42-4.22-32.16-12.66c-8.74-8.44-13.1-18.85-13.1-31.22
				c0-12.29,4.33-22.67,12.98-31.16c8.65-8.48,19.29-12.73,31.91-12.73c9.61,0,18.14,2.19,25.58,6.58
				c7.44,4.39,12.58,10.6,15.42,18.62l-19.93,5.77c-4.1-8.02-11.12-12.04-21.06-12.04c-6.85,0-12.58,2.38-17.18,7.15
				c-4.6,4.76-6.9,10.7-6.9,17.8c0,7.1,2.36,13.06,7.08,17.86c4.72,4.81,10.59,7.21,17.61,7.21c5.43,0,10.09-1.34,13.98-4.01
				c3.89-2.67,6.62-6.35,8.21-11.03h-25.7v-17.55H283.71z"/>
			<path class="st2" d="M347.91,274.21l-25.33-28.84h-6.02v28.84h-20.69v-84h42.5c9.11,0,16.42,2.53,21.94,7.58
				c5.52,5.06,8.27,11.68,8.27,19.87c0,6.85-1.96,12.64-5.89,17.36c-3.93,4.72-9.32,7.84-16.17,9.34l26.33,29.84H347.91z
				 M336.13,228.07c3.68,0,6.62-0.92,8.84-2.76c2.21-1.84,3.32-4.3,3.32-7.4c0-3.01-1.11-5.43-3.32-7.27
				c-2.22-1.84-5.16-2.76-8.84-2.76h-19.56v20.19H336.13z"/>
			<path class="st2" d="M454.86,236.35c0,12.04-3.41,21.67-10.22,28.9c-6.81,7.23-15.82,10.84-27.02,10.84
				c-11.45,0-20.67-3.61-27.64-10.84c-6.98-7.23-10.47-16.86-10.47-28.9v-46.14h20.69v46.14c0,6.35,1.59,11.39,4.76,15.11
				c3.18,3.72,7.4,5.58,12.66,5.58c5.01,0,9.03-1.86,12.04-5.58c3.01-3.72,4.51-8.75,4.51-15.11v-46.14h20.69V236.35z"/>
			<path class="st2" d="M510.53,190.21c9.45,0,16.95,2.65,22.51,7.96c5.56,5.31,8.34,12.31,8.34,21c0,8.86-2.86,15.96-8.59,21.31
				c-5.73,5.35-13.44,8.02-23.13,8.02h-19.81v25.7h-20.69v-84H510.53z M508.15,231.21c4.01,0,7.17-1.07,9.46-3.2
				c2.3-2.13,3.45-4.99,3.45-8.59c0-3.43-1.17-6.21-3.51-8.34c-2.34-2.13-5.48-3.2-9.4-3.2h-18.3v23.32H508.15z"/>
			<path class="st2" d="M626.07,201.12c8.65,8.53,12.98,18.93,12.98,31.22c0,12.2-4.32,22.54-12.98,31.03
				c-8.65,8.48-19.24,12.73-31.78,12.73c-12.54,0-23.13-4.24-31.78-12.73c-8.65-8.48-12.98-18.83-12.98-31.03
				c0-12.29,4.33-22.69,12.98-31.22c8.65-8.52,19.24-12.79,31.78-12.79C606.82,188.33,617.42,192.59,626.07,201.12z M611.46,250.07
				c4.6-4.72,6.9-10.63,6.9-17.74c0-7.19-2.3-13.16-6.9-17.93c-4.6-4.76-10.32-7.15-17.18-7.15s-12.58,2.38-17.18,7.15
				c-4.6,4.76-6.9,10.74-6.9,17.93c0,7.1,2.3,13.02,6.9,17.74c4.6,4.72,10.32,7.08,17.18,7.08S606.86,254.8,611.46,250.07z"/>
		</g>
		<rect x="170.38" y="831.24" class="st2" width="119.96" height="119.96"/>
		<rect x="170.38" y="950.96" class="st3" width="119.96" height="119.96"/>
		<rect x="170.38" y="1070.34" class="st4" width="119.96" height="119.96"/>
		<rect x="170.38" y="1191.04" class="st5" width="119.96" height="119.96"/>
	</g>
	<rect class="st6" width="1500" height="1500"/>
</g>
<g id="Capa_2">
	<g>
		<path class="st2" d="M466.23,317.1c-0.89-1.9-2.42-2.17-4.25-1.65c-0.46-0.14-0.92-0.41-1.39-0.41
			c-51.99,0.01-103.98,0.02-155.97,0.08c-2.88,0-5.87-0.44-8.59,1.08c-1.69-0.4-3.31-0.42-4.72,0.82c-4.6-1.11-8.85,0.04-12.95,2.07
			c-1.64-0.39-3.21-0.26-4.65,0.69c-4.39-0.07-8.38,1.31-12.18,3.37c-2.12-0.04-3.95,0.67-5.45,2.18c-3.29,0.7-6.71,1.07-9.21,3.72
			c-1.06,0.34-2.13,0.69-3.19,1.03c0,0,0.29,0.06,0.29,0.05c-0.51,0.14-0.82,0.48-0.93,1.01c-1.78-0.03-3.2,0.59-4.09,2.21
			c-2.48,0.69-4.52,2.13-6.42,3.8c-1.52-0.2-2.34,0.63-2.85,1.93c-0.57,0.3-1.14,0.6-1.71,0.91c-0.69-0.39-0.95-0.09-0.95,0.6
			c-3.21,1.25-5.5,3.85-8.3,5.71c0,0,0.31,0.03,0.31,0.03c-23.29,18.14-39.2,41.37-47.86,69.57c-1.28,4.18-2.92,8.32-2.4,12.85
			c-1.44,2.11-1.51,4.61-1.95,7c-2.19,11.89-1.45,23.93-1.46,35.89c-0.14,100.85-0.05,201.71,0,302.56c0,2.91-0.47,5.88,0.65,8.72
			c-1.22,6.99-1.22,6.99,4.07,7.64c0.87,0.67,1.72,0.59,2.55-0.09c2.43,0.17,4.86,0.49,7.29,0.49c35.69,0.01,71.38-0.01,107.08-0.06
			c3.41,0,6.81-0.24,10.22-0.37c4.84,1.03,5.02-1.87,5.02-5.52c-0.11-47.47-0.11-94.93-0.19-142.4c0-2.64,0.74-5.39-0.72-7.91
			c0.6-3.09,0.63-6.17-0.3-9.21c0.9-0.75,1.59-1.62,1.61-2.87c1.71-0.08,3.42-0.22,5.13-0.22c35.99,0.02,71.97,0.08,107.96,0.06
			c4.63,0,9.3,0.46,13.91-0.41l0.62,0.35l0.67-0.26c1.04,0.56,2.07,0.7,3.11,0.01c3.2-0.04,3.21-2.41,3.22-4.61
			c0.02-2.69-0.24-5.37-0.24-8.06c-0.01-39.14,0.02-78.28,0-117.42c0-8.88-0.37-9.16-8.95-8.65c-1.22,0.07-2.45,0.07-3.67,0.07
			c-37.92,0-75.83,0-113.75-0.03c-7.41-0.01-7.41-0.07-8.73-7.58c1.02-1.97,1-3.98,0.18-6.01c0.61-4.12,2.11-7.96,3.59-11.81
			c1.93-1.24,3.54-2.8,4.68-4.82c5.56-2.73,11.37-4.13,17.63-4.11c27.17,0.1,54.34-0.03,81.52,0.07
			c17.36,0.06,34.73-0.31,52.09,0.48c3.71,0.17,5.36-1.45,5.72-5.14c0.16-1.7,0.02-3.42,0.03-5.14c0.1-40.14,0.21-80.28,0.27-120.42
			C467.6,318.2,467.93,316.83,466.23,317.1z"/>
		<path class="st2" d="M824.29,1101.89c-0.01-4.36,0.61-8.76-0.51-13.08c0.67-1.49,0.9-2.98,0.11-4.51
			c0.19-2.33-1.18-2.93-3.16-2.88c-3.41,0.08-6.81,0.14-10.22,0.21c-13.86,0.26-27.72-0.51-41.57,0.48
			c-16.28-0.71-32.57-0.71-48.85,0c-8.75-1.01-17.53-0.27-26.29-0.47c-5.9-0.14-5.94,0.33-5.91,6.21c0.12,26.1,0.03,52.2,0.19,78.3
			c0.03,4.41-1.83,6.81-5.88,7.88c-3.48-1.81-7.11-1.22-10.74-0.73c-4.16-2.54-9.03-1.08-13.42-2.42
			c-6.69-2.04-13.41-3.97-20.12-5.95c-2.37-2.05-5.13-3.3-8.18-3.93c-0.33-1.04-1.04-1.46-2.11-1.31c-0.64-1.23-1.63-1.9-3.03-1.95
			c-0.07-0.71-0.46-0.9-1.11-0.69c-1-0.99-2.07-1.85-3.54-2.01c-0.45-1.16-1.34-1.68-2.54-1.77c-3.32-4.15-8.43-6.33-11.65-10.59
			c0,0,0.16,0.28,0.16,0.28c-1.59-1.72-2.84-3.89-5.51-4.18l-0.06-0.35c0,0-0.24,0.12-0.24,0.12c-0.95-2.89-2.65-5.25-5.08-7.08
			c-0.27-1.55-1.13-2.67-2.5-3.42c0.08-0.72-0.25-1.13-0.93-1.29c-0.26-1.06-0.81-1.89-1.84-2.34c0.09-0.82-0.26-1.4-0.95-1.81
			c-0.33-1.34-0.47-2.81-2.29-3.02c-0.61-0.99-1.21-1.98-1.82-2.97c-1.4-5.07-2.9-10.09-5.99-14.46c0.26-1.59,0.23-3.14-0.7-4.56
			c-0.57-5.96-3.29-11.49-3.48-17.52c-0.04-5.97-0.08-11.94-0.11-17.91c0.91-2.36,0.83-4.76,0.3-7.17c0.6-1.11,0.88-2.26,0.36-3.48
			c1.78-2.46,2.93-5.13,2.62-8.25c5.79-18.01,14.89-33.96,29-46.82c1.25-1.14,2.27-2.54,3.4-3.82c0.69,0.08,0.99-0.24,0.95-0.92
			c2.36-1.17,4.47-2.68,6.22-4.67c1.68-0.11,2.89-0.96,3.74-2.38c1.13-0.15,1.96-0.7,2.33-1.82c0.83,0.05,1.42-0.29,1.7-1.1
			c1.63-0.13,3.06-0.67,4.09-2.02c8.45-4.21,17.33-7.37,26.22-10.48c1.62,0.27,3.2,0.24,4.63-0.7c4.99-0.51,9.97-1.16,14.98-1.5
			c5.74-0.4,11.51-0.53,17.26-0.77c2.02,0.6,4.03,0.6,6.05,0.01c9.74,0.74,19.49,0.78,29.23,0c1.04,0.43,2.07,0.43,3.11,0
			c12.68,0.74,25.37,0.76,38.05,0c2.03,0.59,4.05,0.59,6.08,0c13.91,1.08,27.85,0.19,41.77,0.42c6.46,0.1,6.96-0.55,6.95-7.16
			c-0.04-23.24-0.11-46.48-0.09-69.71c0.01-17.6,0.14-35.19,0.25-52.79c0.01-2.37-0.07-4.51-3.32-4.27
			c-1.6-1.01-3.26-0.93-4.95-0.28c-0.96-0.12-1.92-0.35-2.88-0.35c-45.13,0.02-90.27,0.05-135.4,0.1c-1.93,0-3.91-0.32-5.76,0.57
			c-2.85-0.63-5.67-0.45-8.46,0.32c-8.76-0.49-17.29,0.99-25.77,2.97c-3.34-0.35-6.64-0.38-9.58,1.63c-2.56-0.29-4.78,0.71-6.98,1.8
			c-2.67-0.24-5.17,0.32-7.52,1.59c-1.18-0.21-2.12,0.22-2.86,1.12c-1.16-0.15-2.2,0.09-3.06,0.92c-1.07-0.49-1.95-0.15-2.73,0.62
			c-1.27-0.24-2.37,0.06-3.26,1.03c-2.92,0.04-5.25,1.77-7.86,2.7c-2.68,0.15-4.91,1.32-6.89,3.06c-1.32-0.1-2.47,0.24-3.34,1.3
			c-0.93-0.1-1.72,0.18-2.35,0.87c-2.53,0.68-4.96,1.54-6.87,3.45c-0.76,0.39-1.52,0.78-2.28,1.17c-0.71-0.18-1.21,0.01-1.38,0.77
			c-1.11,0.01-2.06,0.35-2.76,1.26c-1.24-0.02-2.21,0.43-2.8,1.57c-15.24,7.15-28.51,17.25-41.09,28.19
			c-6.72,5.84-13.8,11.47-19.03,18.88c-0.93,0.22-1.49,0.8-1.64,1.75c-3.09,1.51-4.68,4.51-6.86,6.92l-0.55,0.14
			c0,0-0.09,0.55-0.09,0.56c-4.74,4-7.86,9.33-11.57,14.18c-22.59,29.6-36.19,63.06-42.05,99.64c-2.48,15.47-3.34,31.15-2.81,46.87
			c0.76,22.15,4.17,43.87,10.93,64.94c5.92,18.44,14.3,35.75,24.76,52.17c15.59,24.46,35.49,44.76,57.78,63.01
			c15.1,12.36,32.2,21.33,49.51,29.98c3.9,1.95,7.95,3.77,12.41,4.25c0,0,0.44,0,0.44,0c3.78,2.78,8.06,4.15,12.7,4.47
			c2.59,1.63,5.41,2.45,8.47,2.41c0.95,0.79,2.04,0.98,3.22,0.69c13.16,5.05,26.94,6.28,40.87,6.55c3.5,1.58,7.22,1,10.84,1
			c46.23,0.05,92.45,0.05,138.68,0.03c2.18,0,4.37-0.28,6.55-0.42c2.4,0.97,4.78,1.69,6.85-0.7c0.56-0.04,0.79-0.34,0.67-0.89
			c0.74-0.52,0.87-1.18,0.45-1.97c0.07-33.9,0.14-67.8,0.2-101.71c0-0.47-0.21-0.95-0.32-1.42c0.16-1.93,0.46-3.85,0.46-5.78
			C824.37,1163.74,824.37,1132.82,824.29,1101.89z M624.77,840.38l-0.02-0.03C624.76,840.36,624.77,840.38,624.77,840.38
			L624.77,840.38z"/>
		<path class="st2" d="M824.32,772.2c-0.2-33.75-0.43-67.49-0.78-101.24c-0.05-4.59,1.86-10.12-1.1-13.56
			c-3.18-3.69-8.83-1.18-13.33-1.19c-46.71-0.09-93.42,0.09-140.12,0.01c-9.27-0.02-18.58,0.63-27.81-0.81
			c-5.75-3.85-10.61-8.47-13.26-15.05c0.06-1.71,0.18-3.42,0.18-5.13c0.01-102.13,0.01-204.26,0.02-306.4
			c0-2.94-0.01-5.88,0.11-8.81c0.12-3-1.32-4.61-4.21-4.92c-1.45-0.16-2.93-0.1-4.4-0.1c-40.41,0-80.82,0.02-121.23,0.01
			c-5.96,0-6.6,0.67-6.59,6.8c0.06,48.25,0.11,96.5,0.16,144.74c0.07,64.66,0.12,129.32,0.21,193.98c0.01,5.11-0.13,10.3,2.6,14.96
			c-0.32,1.14-0.17,2.19,0.62,3.11c-0.61,2.03-0.35,3.95,0.77,5.75c-0.29,2.34,0.65,4.26,2.06,6.01c-0.36,1.14,0.14,2.01,0.9,2.79
			c-0.27,2.26,0.16,4.33,1.71,6.08c0.11,1.52,0.69,2.8,1.87,3.79c-0.01,1.94,0.48,3.66,2.11,4.88c-0.15,1.36,0.5,2.28,1.6,2.97
			c-0.14,2.09,1.03,3.7,1.99,5.37c8.81,15.29,19.6,28.95,33.29,40.21c1.16,1.2,2.26,2.49,4.04,2.81v0c1.22,1.17,2.34,2.47,3.67,3.5
			c20.65,15.91,44.09,25.26,69.93,27.42c21.9,1.83,43.94,1.06,65.92,0.37c2.37,0.87,4.83,0.42,7.24,0.43
			c22.64,0.04,45.29,0.05,67.94,0.02c2.41,0,4.87,0.44,7.24-0.44c14.66,0.71,29.33,0.66,43.99,0.02c2.48,0.72,4.96,0.74,7.45,0
			c3.1,0.09,5.63-0.43,4.78-4.52C824.79,781.47,824.35,776.82,824.32,772.2z"/>
		<g>
			<path class="st2" d="M283.71,224.69c0.33,2.67,0.5,5.22,0.5,7.65c0,12.7-4.1,23.17-12.29,31.41
				c-8.19,8.23-18.6,12.35-31.22,12.35c-12.7,0-23.42-4.22-32.16-12.66c-8.74-8.44-13.1-18.85-13.1-31.22
				c0-12.29,4.33-22.67,12.98-31.16c8.65-8.48,19.29-12.73,31.91-12.73c9.61,0,18.14,2.19,25.58,6.58
				c7.44,4.39,12.58,10.6,15.42,18.62l-19.93,5.77c-4.1-8.02-11.12-12.04-21.06-12.04c-6.85,0-12.58,2.38-17.18,7.15
				c-4.6,4.76-6.9,10.7-6.9,17.8c0,7.1,2.36,13.06,7.08,17.86c4.72,4.81,10.59,7.21,17.61,7.21c5.43,0,10.09-1.34,13.98-4.01
				c3.89-2.67,6.62-6.35,8.21-11.03h-25.7v-17.55H283.71z"/>
			<path class="st2" d="M347.91,274.21l-25.33-28.84h-6.02v28.84h-20.69v-84h42.5c9.11,0,16.42,2.53,21.94,7.58
				c5.52,5.06,8.27,11.68,8.27,19.87c0,6.85-1.96,12.64-5.89,17.36c-3.93,4.72-9.32,7.84-16.17,9.34l26.33,29.84H347.91z
				 M336.13,228.07c3.68,0,6.62-0.92,8.84-2.76c2.21-1.84,3.32-4.3,3.32-7.4c0-3.01-1.11-5.43-3.32-7.27
				c-2.22-1.84-5.16-2.76-8.84-2.76h-19.56v20.19H336.13z"/>
			<path class="st2" d="M454.86,236.35c0,12.04-3.41,21.67-10.22,28.9c-6.81,7.23-15.82,10.84-27.02,10.84
				c-11.45,0-20.67-3.61-27.64-10.84c-6.98-7.23-10.47-16.86-10.47-28.9v-46.14h20.69v46.14c0,6.35,1.59,11.39,4.76,15.11
				c3.18,3.72,7.4,5.58,12.66,5.58c5.01,0,9.03-1.86,12.04-5.58c3.01-3.72,4.51-8.75,4.51-15.11v-46.14h20.69V236.35z"/>
			<path class="st2" d="M510.53,190.21c9.45,0,16.95,2.65,22.51,7.96c5.56,5.31,8.34,12.31,8.34,21c0,8.86-2.86,15.96-8.59,21.31
				c-5.73,5.35-13.44,8.02-23.13,8.02h-19.81v25.7h-20.69v-84H510.53z M508.15,231.21c4.01,0,7.17-1.07,9.46-3.2
				c2.3-2.13,3.45-4.99,3.45-8.59c0-3.43-1.17-6.21-3.51-8.34c-2.34-2.13-5.48-3.2-9.4-3.2h-18.3v23.32H508.15z"/>
			<path class="st2" d="M626.07,201.12c8.65,8.53,12.98,18.93,12.98,31.22c0,12.2-4.32,22.54-12.98,31.03
				c-8.65,8.48-19.24,12.73-31.78,12.73c-12.54,0-23.13-4.24-31.78-12.73c-8.65-8.48-12.98-18.83-12.98-31.03
				c0-12.29,4.33-22.69,12.98-31.22c8.65-8.52,19.24-12.79,31.78-12.79C606.82,188.33,617.42,192.59,626.07,201.12z M611.46,250.07
				c4.6-4.72,6.9-10.63,6.9-17.74c0-7.19-2.3-13.16-6.9-17.93c-4.6-4.76-10.32-7.15-17.18-7.15s-12.58,2.38-17.18,7.15
				c-4.6,4.76-6.9,10.74-6.9,17.93c0,7.1,2.3,13.02,6.9,17.74c4.6,4.72,10.32,7.08,17.18,7.08S606.86,254.8,611.46,250.07z"/>
		</g>
		<path class="st2" d="M302,951.2H165.24V836.26c0-2.77,2.25-5.02,5.02-5.02h126.71c2.77,0,5.02,2.25,5.02,5.02V951.2z"/>
		<rect x="165.24" y="950.96" class="st3" width="136.76" height="119.96"/>
		<rect x="165.24" y="1070.34" class="st4" width="136.76" height="119.96"/>
		<path class="st5" d="M296.98,1310H170.27c-2.77,0-5.02-2.25-5.02-5.02v-114.94H302v114.94C302,1307.75,299.75,1310,296.98,1310z"
			/>
		<path class="st2" d="M1089.25,312.25C956.29,312.25,848.5,420.04,848.5,553s107.79,240.75,240.75,240.75S1330,685.96,1330,553
			S1222.21,312.25,1089.25,312.25z M1089.25,657c-57.44,0-104-46.56-104-104s46.56-104,104-104s104,46.56,104,104
			S1146.69,657,1089.25,657z"/>
		<path class="st2" d="M1089.25,829.25c-132.96,0-240.75,107.79-240.75,240.75s107.79,240.75,240.75,240.75S1330,1202.96,1330,1070
			S1222.21,829.25,1089.25,829.25z M1089.25,1174c-57.44,0-104-46.56-104-104s46.56-104,104-104s104,46.56,104,104
			S1146.69,1174,1089.25,1174z"/>
	</g>
	<rect class="st7" width="1500" height="1500"/>
	<g>
		<g>
			<g>
				<path class="st8" d="M1402.01,945.99c-0.14,4.84-2.46,11.2-5.08,14.9c-1.83,2.59-4.32,4.62-6.74,6.46
					c-2.48,1.88-5.12,3.49-7.85,4.88c-10.82,5.54-22.81,8.04-34.93,8.33c-12.19,0.29-24.52-1.62-36.62-4.8
					c-1.98-0.52-3.96-1.08-5.93-1.67c0.04,0.21,0.08,0.42,0.12,0.63c0.35,1.5,0.71,3,1.09,4.49c1.02,4.11,2.07,8.21,3.13,12.31
					c1.06,4.09,2.12,8.19,3.21,12.28c0.24,0.9,0.49,1.81,0.73,2.71c0.2,0.8,0.43,1.58,0.69,2.35c12.03,3.59,24.29,6,36.52,6.43
					c12.16,0.42,24.35-1.05,35.47-5.79c24.57-10.45,24.76-31.4,24.52-32.52C1409.13,970.95,1404.97,956.37,1402.01,945.99z"/>
			</g>
			<g>
				<path class="st9" d="M1166.69,947.72c-0.14-0.38-0.27-0.76-0.4-1.15c0.08,0.26,0.17,0.51,0.25,0.77
					c-0.08-0.24-0.15-0.48-0.23-0.72c-0.03-0.1-0.06-0.19-0.08-0.29c-0.02-0.05-0.03-0.1-0.05-0.14c-0.22-0.77-0.06-0.19,0.49,1.74
					c3.55,12.74,6.84,25.54,9.87,38.41c-0.03-0.15-0.06-0.29-0.1-0.44c-0.06-0.29-0.12-0.59-0.18-0.88c0.05,0.26,0.1,0.53,0.15,0.79
					c-1.85-9.87,0.63-20.07,6.44-26.87c1.67-1.95,3.62-3.56,5.64-5.01c2.16-1.55,4.47-2.87,6.84-3.98
					c4.77-2.23,9.88-3.59,15.04-4.49c2.61-0.45,5.25-0.78,7.89-1.04c2.55-0.25,5.09-0.38,7.68-0.23c4.99,0.28,9.98,1.45,14.87,3.02
					c6.03,1.94,11.92,4.52,17.84,6.94c-0.05-0.26-0.1-0.52-0.15-0.79c-0.44-1.87-0.89-3.74-1.36-5.61
					c-1.28-5.13-2.59-10.26-3.91-15.38c-1.32-5.12-2.65-10.24-4.02-15.35c-0.3-1.13-0.61-2.26-0.91-3.39
					c-0.25-1-0.53-1.98-0.86-2.94c-9.59-3.93-19.23-8.28-29.25-9.63c-5.21-0.7-10.31-0.28-15.42,0.39
					c-5.22,0.69-10.4,1.78-15.33,3.64c-4.93,1.85-9.57,4.52-13.61,8.14c-3.3,2.95-5.82,6.94-7.4,11.44c-1.34,3.81-1.96,8-1.84,12.23
					c0.07,2.35,0.41,4.68,0.9,6.99c0.48,2.27,1.08,4.53,1.63,6.78c2.87,11.6,5.87,23.17,8.99,34.7c0.53,1.96,1.08,3.92,1.77,5.83
					c-0.05-0.26-0.1-0.53-0.15-0.79c-0.44-1.88-0.89-3.74-1.36-5.61c-1.28-5.13-2.59-10.25-3.91-15.38
					c-1.32-5.12-2.65-10.24-4.02-15.35C1167.92,951.98,1167.43,949.74,1166.69,947.72z"/>
			</g>
			<path class="st10" d="M1350.38,798.98l-15.94,4.11c-21.34-25.54-56.2-38.01-90.58-29.14c-34.37,8.87-58.85,36.65-65.17,69.33
				l-15.24,3.93c-5.31,1.37-8.51,6.79-7.14,12.1l34.87,135.13c1.37,5.31,6.79,8.5,12.1,7.13l10.21-2.63
				c19.58,33.48,59.65,51.37,99.06,41.2c39.42-10.18,65.82-45.22,66.75-83.99l10.91-2.82c4.7-1.22,8.35-7.4,7.14-12.1l-34.87-135.14
				C1361.11,800.8,1355.69,797.61,1350.38,798.98z"/>
			<path class="st11" d="M1351.6,803.69l-18.92,4.88l-1.97-2.36c-5.01-5.99-10.84-11.26-17.33-15.67
				c-6.46-4.39-13.48-7.85-20.87-10.31c-15.32-5.08-31.72-5.63-47.43-1.57c-15.7,4.05-29.79,12.47-40.74,24.33
				c-5.29,5.73-9.75,12.16-13.28,19.12c-3.55,6.99-6.09,14.43-7.58,22.09l-0.58,3.02l-18.22,4.7c-2.7,0.7-4.33,3.47-3.64,6.17
				l34.87,135.13c0.7,2.7,3.46,4.34,6.17,3.64l13.78-3.56l1.86,3.18c4.57,7.81,10.35,14.81,17.19,20.78
				c6.74,5.89,14.35,10.66,22.59,14.16c8.34,3.54,17.11,5.7,26.1,6.42c9.3,0.74,18.63-0.07,27.75-2.43
				c9.12-2.35,17.68-6.15,25.46-11.31c7.51-4.98,14.15-11.12,19.73-18.25c5.52-7.06,9.87-14.91,12.92-23.33
				c3.1-8.54,4.77-17.46,4.99-26.51l0.09-3.68l14.47-3.73c0.96-0.25,2.06-1.23,2.81-2.5c0.75-1.27,1.08-2.71,0.83-3.67
				l-34.87-135.13C1357.07,804.63,1354.3,802.99,1351.6,803.69L1351.6,803.69z M1390.25,943.07L1390.25,943.07
				c0.03,0.18-0.05,0.93-0.56,1.8c-0.52,0.88-1.14,1.31-1.31,1.37l-16.27,4.2l-0.04,1.87l-0.09,3.68
				c-0.21,8.78-1.84,17.44-4.84,25.73c-2.96,8.17-7.18,15.8-12.54,22.65c-5.41,6.92-11.86,12.88-19.15,17.71
				c-7.54,5-15.86,8.69-24.71,10.98c-8.85,2.29-17.91,3.08-26.93,2.35c-8.72-0.7-17.24-2.79-25.33-6.23
				c-8.01-3.4-15.39-8.03-21.94-13.75c-6.64-5.8-12.25-12.59-16.69-20.17l-1.86-3.18l-0.94-1.61l-15.58,4.02
				c-1.39,0.36-2.81-0.48-3.16-1.87l-34.87-135.13c-0.36-1.38,0.48-2.8,1.86-3.16l19.74-5.09l0.3-1.53l0.58-3.02
				c1.44-7.44,3.91-14.66,7.35-21.45c3.43-6.76,7.77-13.01,12.9-18.57c10.63-11.51,24.3-19.67,39.55-23.61
				c15.25-3.93,31.16-3.41,46.03,1.52c7.18,2.38,14,5.75,20.27,10c6.3,4.28,11.96,9.39,16.81,15.21l1.98,2.36l1,1.19l20.43-5.27
				c1.39-0.36,2.8,0.48,3.16,1.86L1390.25,943.07z"/>
			<path class="st11" d="M1331.56,814.36c-0.5,0.13-1.03-0.04-1.36-0.43l-1.61-1.94l-1.97-2.36c-4.69-5.61-10.15-10.55-16.23-14.68
				c-6.05-4.11-12.64-7.36-19.56-9.66c-14.35-4.76-29.71-5.27-44.42-1.47c-14.71,3.8-27.91,11.67-38.16,22.78
				c-4.95,5.36-9.14,11.39-12.44,17.92c-3.33,6.55-5.71,13.52-7.1,20.7l-0.58,3.02l-0.48,2.47c-0.1,0.5-0.48,0.91-0.98,1.04
				l-19.03,4.91c-0.76,0.2-1.22,0.98-1.02,1.74l34.03,131.87c0.2,0.76,0.97,1.22,1.74,1.02l15.22-3.93
				c0.48-0.13,0.99,0.09,1.24,0.52l1.61,2.74l1.86,3.18c4.28,7.32,9.69,13.86,16.1,19.47c6.32,5.53,13.44,9.99,21.17,13.27
				c7.8,3.32,16.03,5.34,24.44,6.02c8.7,0.7,17.45-0.07,25.99-2.27c8.54-2.21,16.56-5.77,23.85-10.59
				c7.04-4.66,13.25-10.41,18.48-17.09c5.18-6.61,9.25-13.96,12.11-21.86c2.89-8,4.47-16.35,4.67-24.82l0.09-3.68l0.08-3.18
				c0.01-0.5,0.36-0.93,0.84-1.06l16.74-4.32c0.15-0.04,0.29-0.13,0.36-0.26c0.08-0.13,0.09-0.3,0.05-0.45l-34.24-132.68
				c-0.2-0.76-0.97-1.22-1.74-1.03L1331.56,814.36L1331.56,814.36z M1386.31,942.19L1386.31,942.19c0.12,0.45-0.16,0.91-0.6,1.03
				l-15.74,4.06c-0.82,0.21-1.4,0.94-1.42,1.78l-0.08,3.15l-0.09,3.68c-0.2,8.39-1.76,16.66-4.63,24.59
				c-2.83,7.82-6.87,15.1-11.99,21.66c-5.18,6.61-11.34,12.31-18.31,16.93c-7.21,4.78-15.16,8.31-23.62,10.49
				c-8.46,2.18-17.13,2.94-25.75,2.25c-8.34-0.67-16.48-2.67-24.22-5.95c-7.66-3.25-14.71-7.68-20.97-13.15
				c-6.35-5.55-11.72-12.04-15.95-19.28l-1.86-3.18l-1.59-2.72c-0.43-0.73-1.29-1.08-2.11-0.87l-15.04,3.88
				c-0.45,0.12-0.91-0.16-1.03-0.61l-33.95-131.56c-0.12-0.45,0.16-0.91,0.61-1.03l18.77-4.84c0.84-0.22,1.49-0.9,1.65-1.76
				l0.45-2.36l0.59-3.02c1.38-7.11,3.74-14.01,7.03-20.5c3.28-6.47,7.43-12.44,12.33-17.75c10.16-11,23.23-18.8,37.8-22.56
				c14.57-3.76,29.79-3.26,44,1.45c6.87,2.28,13.39,5.5,19.38,9.57c6.02,4.09,11.43,8.98,16.08,14.54l1.97,2.36l1.54,1.84
				c0.55,0.67,1.45,0.96,2.3,0.74l19.47-5.02c0.45-0.12,0.91,0.16,1.03,0.6L1386.31,942.19z"/>
			<path class="st12" d="M1376.19,919.28c-8.47,0.51-15.02,5.55-21.94,9.99c-4.7,3.05-9.07,6.45-13.26,10.06
				c-4.2,3.6-8.23,7.41-12.26,11.29c-3.31,3.27-6.76,6.4-10.33,9.36c-3.58,2.97-7.27,5.76-11.09,8.35
				c-3.8,2.57-7.73,4.94-11.76,7.09c-15.51,8.26-32.78,13.13-50.47,12.79c-4.35-0.07-8.71-0.43-13.07-1.11
				c-3.54-0.48-7.07-1.07-10.57-1.73c-4.72-0.88-9.44-1.87-14.15-2.84c-2.74-0.57-5.49-1.05-8.23-1.47l2.54,9.83
				c1.37,5.31,6.33,8.63,11.07,7.4l9.11-2.35c6.67,12.19,15.68,22.42,26.13,30.11c12.81-0.57,25.51-4.03,37.52-8.69
				c14.97-5.77,28.87-13.41,42.2-22.28c4.18-2.77,8.27-5.64,12.27-8.56c3.52-2.56,7.02-5.16,10.53-7.76
				c3.52-2.59,7.04-5.19,10.6-7.73c2.59-1.8,5.22-3.56,7.89-5.3c0.18-0.12,0.36-0.23,0.54-0.35c0.19-2.51,0.28-5.06,0.27-7.62
				l9.74-2.51c4.2-1.08,7.31-7.13,6.1-11.83l-6.22-24.09C1378.29,919.24,1377.24,919.23,1376.19,919.28z"/>
			<path class="st13" d="M1400.01,936.36c-0.61-2.3-1.17-4.71-1.95-6.97c-1.32-3.82-3.03-7.47-5.73-10.31
				c-2.53-2.67-5.71-4.18-8.89-5.22c-6.24-2.02-12.74-1.13-18.66,0.69c-6.18,1.89-11.98,4.96-17.59,8.23
				c-1.48,0.86-2.95,1.73-4.41,2.61c-10.99,6.62-21.28,13.84-32.48,20.73c-10.48,6.48-20.74,12.11-31.52,17.27
				c-2.18,1.05-4.36,2.07-6.56,3.06c-11,4.94-22.31,9.04-34.09,11.55c-4.43,0.93-8.9,1.62-13.42,2c-2.26,0.19-4.53,0.31-6.82,0.34
				c-13.24,0.17-27.2-1.95-38.87-11.89c-6.75-5.76-11.02-14.01-13.29-22.83c3.47,16.33,7.42,32.59,11.94,48.65
				c0.52,1.79,1.13,3.54,1.82,5.23c2.07,5.09,4.91,9.72,8.5,13.74c2.41,2.71,5.09,4.99,7.95,6.92c2.86,1.92,5.89,3.49,9,4.74
				c23.16,9.3,46.84,1.84,68.39-5.55c2.32-0.84,4.63-1.72,6.92-2.63c2.29-0.91,4.57-1.88,6.83-2.88c2.28-1.01,4.54-2.09,6.78-3.2
				c19.54-9.85,37.15-22.45,56.24-34.36c6.02-3.79,11.84-7.34,18.06-10.36c1.92-0.94,3.91-1.82,5.93-2.58
				c8.09-3.06,16.82-4.32,25.19-0.32c2.45,1.17,4.78,2.99,6.6,5.26c2.83,3.51,3.84,6.95,4.52,8.92c-0.06-0.29-0.11-0.58-0.17-0.87
				c-0.48-2.06-0.98-4.12-1.5-6.17c-1.4-5.65-2.85-11.28-4.3-16.92C1402.97,947.61,1401.51,941.98,1400.01,936.36z"/>
			<path class="st11" d="M1405.8,964.31c-1.96-2.08-4.48-3.79-7.31-5.09c-5.7-2.64-12.77-3.19-19.98-1.47
				c-7.24,1.69-14.51,5.55-22.06,9.91c-1.89,1.09-3.81,2.2-5.77,3.3c-0.98,0.55-1.97,1.09-2.98,1.63c-1.05,0.59-1.98,1.2-3,1.8
				c-3.97,2.45-8.01,5.06-12.15,7.73c-16.52,10.69-34.88,22.26-55.65,30.72c-10.37,4.22-20.84,7.4-31.19,9.34
				c-5.17,0.95-10.32,1.72-15.38,1.87c-5.08,0.19-10.09-0.08-14.96-0.78c-9.63-1.7-18.79-6-25.64-12.62
				c-3.42-3.31-6.16-7.26-8.58-11.17c-1.45-2.37-2.77-4.76-4-7.13c0.17,0.61,0.34,1.21,0.51,1.82c0.26,0.91,0.55,1.82,0.86,2.7
				c0.58,1.07,1.19,2.14,1.83,3.2c2.41,3.99,5.16,8.06,8.67,11.54c7.05,6.93,16.34,11.41,26.27,13.26
				c4.94,0.76,10.04,1.07,15.19,0.92c5.18-0.13,10.36-0.86,15.59-1.8c10.46-1.91,21.03-5.09,31.48-9.34
				c20.93-8.53,39.31-20.26,55.75-31.12c4.12-2.71,8.13-5.35,12.07-7.84c0.98-0.61,1.98-1.27,2.92-1.81c1.01-0.55,2-1.11,2.98-1.67
				c1.96-1.13,3.87-2.27,5.75-3.38c7.49-4.45,14.63-8.38,21.72-10.15c7.04-1.81,13.99-1.39,19.59,1.09c2.8,1.24,5.28,2.85,7.22,4.85
				c0.98,0.97,1.83,2,2.58,3.04c-0.07-0.28-0.14-0.57-0.22-0.86C1407.28,965.96,1406.58,965.12,1405.8,964.31L1405.8,964.31z
				 M1185.03,977.07c-6.05-3.56-10.72-8.5-14-13.42c-0.74-1.1-1.41-2.21-2.03-3.3c-0.12-0.53-0.25-1.06-0.37-1.59
				c0.81,1.5,1.74,3.01,2.8,4.53c3.31,4.78,7.96,9.54,13.92,12.92c5.97,3.28,13,5.63,20.57,6.66c7.59,1.05,15.7,0.71,24.06-0.59
				c16.79-2.42,34.42-8.93,52.06-17.58c8.81-4.36,17.2-9.13,25.2-13.94c7.99-4.81,15.52-9.83,22.77-14.49
				c7.24-4.67,14.2-9,20.86-12.72c1.67-0.93,3.31-1.83,4.94-2.69c1.6-0.88,3.28-1.68,4.94-2.28c3.32-1.2,6.57-2.18,9.76-2.76
				c6.38-1.22,12.56-0.3,17.49,2.11c2.71,1.3,5.05,2.92,7.03,4.65c0.2,0.33,0.4,0.68,0.58,1.02c-2.14-1.92-4.74-3.73-7.78-5.12
				c-2.44-1.11-5.16-1.92-8.05-2.19c-2.91-0.29-5.96-0.23-9.08,0.47c-3.13,0.62-6.33,1.66-9.59,2.89c-1.63,0.63-3.2,1.39-4.8,2.31
				c-1.61,0.88-3.24,1.8-4.88,2.76c-6.59,3.81-13.48,8.22-20.67,12.96c-7.2,4.73-14.7,9.83-22.71,14.71
				c-8,4.87-16.41,9.69-25.27,14.07c-4.42,2.2-8.87,4.22-13.31,6.07c-4.43,1.85-8.84,3.56-13.23,5.05
				c-8.78,3.02-17.53,5.1-25.99,6.29c-8.45,1.23-16.7,1.46-24.4,0.29C1198.18,983.02,1191.09,980.52,1185.03,977.07L1185.03,977.07z
				"/>
			<path class="st14" d="M1249.9,797.08c6.91-1.78,13.95,2.37,15.73,9.28c1.78,6.91-2.37,13.95-9.28,15.73
				c-6.91,1.78-13.95-2.37-15.73-9.28C1238.84,805.91,1242.99,798.87,1249.9,797.08z"/>
			<path class="st15" d="M1259.12,834.62c13.73-3.55,21.99-17.56,18.44-31.3c-3.55-13.73-17.56-21.99-31.29-18.44
				c-13.74,3.55-21.99,17.56-18.44,31.3C1231.37,829.91,1245.39,838.17,1259.12,834.62L1259.12,834.62z M1241.71,812.61
				c-1.56-6.04,2.07-12.21,8.12-13.77c6.04-1.57,12.21,2.07,13.77,8.11c1.56,6.04-2.07,12.21-8.11,13.77
				C1249.45,822.29,1243.28,818.66,1241.71,812.61z"/>
			<path class="st16" d="M1241.72,812.61c1.56,6.05,7.73,9.68,13.77,8.11c3.44-0.89,6.1-3.28,7.46-6.28c-1.49,2-3.63,3.52-6.24,4.2
				c-6.04,1.56-12.21-2.08-13.77-8.12c-0.67-2.6-0.38-5.22,0.65-7.49C1241.63,805.69,1240.83,809.17,1241.72,812.61z"/>
			<path class="st17" d="M1184.51,597.58c-1.62,0.01-3.06,0.18-4.33,0.43c1.12-0.19,2.37-0.32,3.74-0.32
				c6.39-0.05,14.98,2.71,25.17,12.14c4.96,4.58,10.25,10.8,15.77,19.17c13.98,21.21,19.02,47.58,19.36,71.92
				c-0.33-24.38-4.47-51.03-18.48-72.28c-5.53-8.37-10.81-14.58-15.77-19.17C1199.78,600.04,1190.89,597.53,1184.51,597.58z"/>
			<path class="st18" d="M1162.87,623.64c1.27,8.39,6.81,18.72,20.14,31.38c27.96,26.48,43.15,56.78,47.98,81.15
				c-4.44-24.67-19.67-55.79-48.3-82.91C1170.27,641.47,1164.61,631.7,1162.87,623.64z"/>
			<g>
				<linearGradient id="SVGID_1_" gradientUnits="userSpaceOnUse" x1="1377.9791" y1="946.6572" x2="1040.7091" y2="406.9123">
					<stop  offset="0" style="stop-color:#B79875"/>
					<stop  offset="1" style="stop-color:#685027"/>
				</linearGradient>
				<path class="st19" d="M1168.18,604.85c-3.51,3.77-6.99,9.96-5.88,18.46c1.1,8.49,6.6,19,20.22,31.93
					c39,36.93,53.15,81.29,49.02,106.65c-4.43,27.63,10.67,41.83,11.01,42.12c0,0,0.96,0.68,2.13-0.46
					c1.17-1.13,0.29-2.15,0.08-2.33l-0.38-0.43c-2.68-2.91-12.97-15.57-9.32-38.34c4.29-27.12-10.43-72.11-50.09-109.8
					c-13.31-12.61-18.21-22.49-19.15-29.8c-0.92-7.29,1.94-12.27,4.97-15.58c1.39-1.52,2.82-2.63,3.89-3.36
					c0.53-0.37,0.98-0.64,1.28-0.81c0.15-0.09,0.27-0.15,0.34-0.19c0.08-0.03,0.09-0.05,0.09-0.05l0.21-0.13c0,0,0-0.01,0.08-0.06
					c0.59-0.35,3.94-2.22,9.31-1.99c5.37,0.24,12.88,2.54,21.97,10.92c4.71,4.35,9.83,10.34,15.22,18.52
					c13.67,20.69,17.72,47.23,17.9,71.6c0.19,24.37-3.45,46.46-4.94,58.36c-2.64,20.95,7.99,33.44,13.23,38.24
					c0.48,0.44,0.92,0.83,1.3,1.15c0.41,0.33,1.02,0.76,2.91,0.58c2.73-0.35,1.31-1.66,1.31-1.66s-1.89-1.57-3.09-2.68
					c-4.79-4.46-14.53-15.68-12.11-35.18c1.47-11.77,5.16-34.11,4.97-58.83c-0.2-24.72-4.25-51.92-18.5-73.54
					c-5.52-8.37-10.81-14.59-15.77-19.17c-10.19-9.43-19.08-11.94-25.47-11.89c-5.89,0.04-9.54,2.18-10.22,2.61
					c-0.3,0.16-1.17,0.63-2.33,1.45C1171.19,602.02,1169.68,603.23,1168.18,604.85z"/>
				<path class="st20" d="M1243.01,802.75c-3.22-3.35-14.04-16.51-11.13-39.8c-3.86,26.5,10.38,40,10.7,40.27
					c0,0,0.3,0.31,0.52,0.09C1243.32,803.08,1243.01,802.75,1243.01,802.75"/>
				<path class="st21" d="M1251.79,798.83l-2.18-1.95c-4.92-4.51-14.67-15.97-13.07-35.16c-1.92,19.65,8.02,31.35,13.01,35.92
					c0.47,0.44,0.91,0.81,1.28,1.13c0,0,0.75,0.71,0.96,0.55C1251.98,799.16,1251.88,798.88,1251.79,798.83z"/>
			</g>
			<g>
				<g>
					<path class="st22" d="M1235.21,870.54c-0.19,0.28-0.47,0.53-0.82,0.75c-0.36,0.23-0.79,0.41-1.31,0.55
						c-0.68,0.18-1.27,0.25-1.77,0.2c-0.49-0.05-0.86-0.27-1.11-0.65c-0.98-1.53-1.78-2.77-2.4-3.72c-0.62-0.95-1.13-1.78-1.53-2.51
						l-0.14,0.04c0.24,1.14,0.47,2.17,0.69,3.1c0.22,0.93,0.44,1.83,0.66,2.71c0.22,0.88,0.44,1.77,0.65,2.67
						c0.21,0.9,0.43,1.9,0.66,3c-0.22,0.16-0.52,0.33-0.91,0.5c-0.38,0.17-0.77,0.31-1.17,0.42c-0.84,0.22-1.52,0.26-2.06,0.12
						c-0.54-0.14-0.9-0.57-1.09-1.27l-3.05-14.77c0.09-0.29,0.35-0.64,0.79-1.07c0.44-0.42,1.12-0.76,2.05-1.01
						c1.01-0.27,1.84-0.32,2.5-0.16c0.65,0.16,1.21,0.56,1.66,1.19c0.29,0.41,0.62,0.89,0.98,1.42c0.36,0.54,0.72,1.09,1.09,1.67
						c0.37,0.57,0.73,1.15,1.08,1.71c0.36,0.57,0.67,1.08,0.96,1.53l0.14-0.04c0.03-1.72,0.08-3.39,0.14-5
						c0.06-1.61,0.14-2.98,0.25-4.09c0.24-0.23,0.58-0.46,1-0.68c0.42-0.22,0.9-0.41,1.46-0.56c0.93-0.25,1.73-0.31,2.4-0.2
						c0.66,0.12,1.11,0.42,1.34,0.91c0.18,0.36,0.41,0.92,0.71,1.69c0.3,0.77,0.62,1.63,0.98,2.6c0.36,0.96,0.73,1.99,1.12,3.06
						c0.39,1.08,0.76,2.12,1.12,3.11c0.36,1,0.68,1.91,0.96,2.74c0.28,0.83,0.5,1.47,0.64,1.92c-0.27,0.28-0.57,0.5-0.9,0.68
						c-0.33,0.18-0.77,0.34-1.32,0.49c-0.72,0.19-1.36,0.23-1.92,0.12c-0.56-0.11-0.96-0.53-1.19-1.24
						c-0.67-2.04-1.23-3.89-1.71-5.54c-0.47-1.65-0.88-3.02-1.24-4.13l-0.14,0.04c0.01,0.79-0.02,1.8-0.08,3.02
						C1235.31,867.1,1235.26,868.66,1235.21,870.54z"/>
					<path class="st22" d="M1246.48,854.12c0.27-0.28,0.71-0.59,1.32-0.93c0.61-0.35,1.25-0.61,1.92-0.79
						c0.95-0.25,1.83-0.34,2.63-0.26c0.81,0.08,1.39,0.39,1.76,0.92c0.61,0.9,1.28,1.95,2.03,3.16c0.75,1.21,1.51,2.46,2.28,3.75
						c0.77,1.29,1.53,2.57,2.27,3.82c0.74,1.26,1.4,2.37,1.96,3.34c-0.16,0.33-0.44,0.63-0.86,0.92c-0.41,0.28-0.93,0.51-1.56,0.68
						c-0.46,0.12-0.85,0.19-1.19,0.2c-0.33,0.01-0.62-0.04-0.86-0.14c-0.24-0.1-0.45-0.26-0.64-0.47c-0.19-0.21-0.38-0.47-0.56-0.77
						l-1.04-1.83l-5.16,1.38c0,0.61,0,1.24,0.01,1.89c0.01,0.65,0.02,1.28,0.02,1.89c-0.24,0.17-0.5,0.32-0.78,0.46
						c-0.28,0.15-0.62,0.28-1.04,0.39c-0.97,0.26-1.73,0.28-2.29,0.07c-0.55-0.21-0.91-0.61-1.07-1.2c-0.07-0.26-0.1-0.54-0.1-0.83
						c0.01-0.29,0.01-0.62,0.01-1.01c0-0.55,0.01-1.24,0.05-2.06c0.04-0.83,0.08-1.72,0.13-2.68c0.05-0.96,0.11-1.95,0.19-2.97
						c0.07-1.02,0.15-1.98,0.21-2.88c0.07-0.9,0.13-1.71,0.2-2.42C1246.38,855.04,1246.44,854.5,1246.48,854.12z M1250.88,856.89
						c-0.05,0.87-0.12,1.84-0.19,2.91c-0.07,1.07-0.11,2.14-0.1,3.22l3.54-0.94c-0.54-0.96-1.08-1.89-1.62-2.79
						c-0.54-0.9-1.02-1.72-1.46-2.44L1250.88,856.89z"/>
					<path class="st22" d="M1268.64,860.19l1.46,5.48c-0.19,0.11-0.51,0.26-0.94,0.43c-0.43,0.18-0.87,0.32-1.31,0.44
						c-0.44,0.12-0.83,0.19-1.18,0.21c-0.35,0.02-0.66-0.02-0.92-0.14c-0.26-0.11-0.49-0.31-0.69-0.58
						c-0.19-0.27-0.36-0.66-0.49-1.15l-3.59-13.44c-0.11-0.4-0.08-0.74,0.08-1.02c0.16-0.27,0.41-0.53,0.76-0.77
						c0.58-0.4,1.29-0.77,2.12-1.1c0.83-0.33,1.73-0.63,2.7-0.89c2.63-0.7,4.75-0.67,6.38,0.07c1.63,0.75,2.69,2.06,3.19,3.95
						c0.31,1.18,0.28,2.27-0.11,3.27c-0.39,1-0.94,1.84-1.65,2.52c0.93,0.75,1.84,1.44,2.73,2.08c0.88,0.64,1.6,1.24,2.16,1.81
						c-0.01,0.72-0.22,1.32-0.63,1.8c-0.41,0.49-0.93,0.82-1.56,0.98c-0.42,0.11-0.79,0.16-1.12,0.15
						c-0.33-0.01-0.63-0.08-0.91-0.19c-0.27-0.11-0.54-0.26-0.8-0.46c-0.26-0.2-0.51-0.42-0.76-0.66l-3.42-3.21L1268.64,860.19z
						 M1269.42,855.92c0.72-0.19,1.25-0.53,1.57-1.01c0.32-0.48,0.38-1.09,0.19-1.81c-0.19-0.72-0.57-1.21-1.14-1.46
						c-0.57-0.25-1.35-0.24-2.36,0.03c-0.28,0.08-0.51,0.15-0.68,0.21c-0.17,0.06-0.35,0.14-0.55,0.24l1.14,4.28L1269.42,855.92z"/>
					<path class="st22" d="M1287.45,846.37c-1.47,0.39-2.47,1.14-3.01,2.24c-0.54,1.1-0.59,2.47-0.16,4.11
						c0.44,1.66,1.21,2.81,2.32,3.48c1.11,0.66,2.39,0.8,3.85,0.41c0.78-0.21,1.41-0.49,1.9-0.84c0.49-0.35,0.94-0.73,1.37-1.13
						c0.39,0.18,0.73,0.43,1.01,0.76c0.28,0.32,0.48,0.73,0.62,1.23c0.21,0.78-0.05,1.56-0.77,2.33c-0.72,0.77-1.97,1.4-3.74,1.87
						c-1.27,0.34-2.52,0.48-3.74,0.42c-1.22-0.06-2.35-0.36-3.38-0.88c-1.04-0.53-1.95-1.3-2.74-2.33c-0.79-1.02-1.4-2.33-1.83-3.93
						c-0.4-1.48-0.51-2.85-0.35-4.11c0.16-1.26,0.54-2.38,1.15-3.38c0.6-1,1.39-1.84,2.37-2.53c0.98-0.69,2.08-1.2,3.32-1.53
						c1.75-0.47,3.18-0.54,4.29-0.23c1.11,0.31,1.79,0.92,2.03,1.81c0.13,0.49,0.12,0.96-0.03,1.38c-0.15,0.43-0.36,0.79-0.63,1.08
						c-0.58-0.19-1.18-0.33-1.8-0.4C1288.87,846.12,1288.19,846.18,1287.45,846.37z"/>
					<path class="st22" d="M1298.24,840.32c0.27-0.28,0.71-0.59,1.33-0.94c0.61-0.35,1.25-0.61,1.91-0.78
						c0.95-0.25,1.83-0.34,2.64-0.26c0.81,0.08,1.39,0.39,1.76,0.92c0.61,0.9,1.28,1.95,2.04,3.15c0.75,1.21,1.51,2.46,2.28,3.75
						c0.77,1.29,1.53,2.57,2.27,3.83c0.74,1.26,1.4,2.38,1.96,3.34c-0.16,0.33-0.44,0.63-0.86,0.92c-0.41,0.28-0.93,0.51-1.56,0.68
						c-0.46,0.12-0.85,0.19-1.19,0.19c-0.33,0.01-0.62-0.04-0.86-0.14c-0.24-0.1-0.46-0.25-0.65-0.47
						c-0.19-0.21-0.37-0.47-0.56-0.77l-1.04-1.83l-5.16,1.38c0,0.61,0,1.24,0.01,1.89c0.01,0.65,0.02,1.28,0.02,1.89
						c-0.24,0.17-0.5,0.32-0.78,0.47c-0.28,0.14-0.63,0.27-1.04,0.38c-0.97,0.26-1.73,0.29-2.29,0.08c-0.56-0.21-0.91-0.61-1.07-1.2
						c-0.07-0.27-0.1-0.54-0.1-0.83c0-0.29,0.01-0.62,0-1.01c0-0.55,0.01-1.23,0.05-2.06c0.03-0.83,0.08-1.72,0.13-2.68
						c0.05-0.96,0.11-1.95,0.19-2.97c0.08-1.02,0.14-1.98,0.21-2.88c0.06-0.9,0.13-1.71,0.19-2.42
						C1298.15,841.24,1298.2,840.69,1298.24,840.32z M1302.65,843.08c-0.05,0.87-0.12,1.84-0.19,2.91
						c-0.07,1.07-0.11,2.14-0.11,3.22l3.54-0.94c-0.54-0.96-1.08-1.89-1.62-2.79c-0.54-0.91-1.02-1.72-1.46-2.44L1302.65,843.08z"/>
				</g>
				<g>
					<path class="st22" d="M1261.87,929.21c0.99,3.71-0.33,5.56-2.2,7.39c-3.19,3-8.65,5.93-15.01,7.62
						c-20.12,5.37-32.49-4.52-36.29-18.78c-4.33-16.23,4.55-30.68,22.03-35.34c7.04-1.88,13.73-1.99,17.83,1.29
						c2.35,1.88,3.72,6.79,0.15,10.68c-4.43-1.13-8.89-1.62-13.44-0.4c-13.33,3.56-12.74,14.43-11.4,19.45
						c2.2,8.3,7.43,11.4,12.48,11.77c5.51,0.4,9.5-1.83,10.86-3.12l-2.12-7.96l-9.06,2.42c-0.5-0.53-2.78-3.19-3.26-6.89
						c-0.24-1.89,0.27-4.55,3.77-5.48l14.31-3.82c3.95-1.05,6.04,1.26,6.75,3.91L1261.87,929.21z"/>
					<path class="st22" d="M1354.41,886.13c4.02,15.07-4.96,30.54-20.06,34.57c-15.1,4.03-30.59-4.92-34.61-19.99
						c-4.02-15.06,4.96-30.53,20.07-34.56C1334.9,862.12,1350.4,871.07,1354.41,886.13 M1323.86,881.37
						c-6.81,1.82-10.87,8.72-9.09,15.42c1.79,6.71,8.75,10.67,15.56,8.85c6.81-1.81,10.87-8.72,9.08-15.42
						C1337.63,883.52,1330.67,879.56,1323.86,881.37"/>
					<path class="st22" d="M1279.36,934.04c3.67-0.16,9.07-0.99,11.84-3.18c1.73-1.36,2.29-3.44,1.43-6.68l-9.08-34.06l10.3-2.74
						c5.87-1.57,4.11-8.43,2.27-13.55l-38.83,10.35c-6.18,1.65-5.45,7.74-2.99,13.74l14.41-3.84L1279.36,934.04z"/>
				</g>
			</g>
		</g>
		<g>
			<path class="st22" d="M1251.59,1006.01c0.18,0.52,0.22,0.93,0.12,1.24c-0.1,0.31-0.31,0.66-0.63,1.02
				c-0.19,0.21-0.43,0.44-0.74,0.69c-0.31,0.24-0.65,0.48-1.04,0.72c-0.38,0.23-0.8,0.45-1.24,0.66c-0.44,0.21-0.89,0.39-1.34,0.54
				c-1.2,0.41-2.38,0.63-3.54,0.66c-1.16,0.04-2.24-0.14-3.24-0.54c-1-0.39-1.89-1-2.68-1.83c-0.79-0.83-1.4-1.89-1.85-3.19
				c-0.47-1.37-0.63-2.64-0.49-3.82c0.14-1.18,0.5-2.25,1.08-3.2c0.58-0.95,1.33-1.77,2.25-2.46c0.93-0.69,1.94-1.22,3.04-1.6
				c1.58-0.54,2.92-0.72,4.02-0.52c1.1,0.19,1.79,0.69,2.07,1.51c0.15,0.43,0.17,0.84,0.06,1.23c-0.11,0.39-0.27,0.72-0.49,1
				c-0.5-0.11-1.11-0.17-1.81-0.2c-0.71-0.03-1.45,0.09-2.23,0.36c-1.4,0.48-2.37,1.26-2.92,2.34c-0.55,1.08-0.58,2.33-0.1,3.75
				c0.26,0.76,0.6,1.39,1.02,1.87c0.42,0.48,0.88,0.84,1.38,1.06c0.5,0.23,1.04,0.34,1.6,0.35c0.56,0,1.12-0.09,1.69-0.28
				c0.37-0.13,0.68-0.27,0.94-0.44c0.26-0.16,0.45-0.31,0.57-0.45l-0.8-2.35l-2.67,0.92c-0.16-0.15-0.34-0.36-0.53-0.63
				c-0.19-0.27-0.35-0.57-0.46-0.9c-0.21-0.6-0.22-1.08-0.03-1.44c0.18-0.36,0.49-0.62,0.92-0.76l4.22-1.45
				c0.5-0.17,0.93-0.17,1.3,0.02c0.37,0.18,0.64,0.52,0.81,1.02L1251.59,1006.01z"/>
			<path class="st22" d="M1250.71,995.55c0.14-0.12,0.38-0.27,0.71-0.47c0.33-0.19,0.68-0.37,1.05-0.52
				c0.36-0.15,0.69-0.26,0.99-0.33c0.3-0.07,0.58-0.07,0.84-0.01c0.26,0.06,0.49,0.2,0.7,0.41c0.21,0.21,0.4,0.51,0.57,0.92
				l2.19,5.23c0.28,0.67,0.64,1.07,1.08,1.22c0.44,0.15,0.97,0.09,1.59-0.17c0.37-0.15,0.67-0.31,0.87-0.48
				c0.21-0.16,0.36-0.3,0.46-0.42l-3.57-8.52c0.14-0.12,0.37-0.28,0.71-0.47c0.33-0.19,0.68-0.37,1.05-0.53
				c0.36-0.15,0.69-0.26,0.99-0.33c0.31-0.07,0.59-0.07,0.84-0.01c0.26,0.06,0.49,0.2,0.7,0.41c0.21,0.21,0.4,0.51,0.57,0.92
				l3.1,7.4c0.34,0.81,0.25,1.56-0.26,2.25c-0.42,0.6-0.98,1.15-1.69,1.67c-0.71,0.52-1.53,0.97-2.45,1.36
				c-0.88,0.37-1.72,0.61-2.55,0.72c-0.82,0.11-1.58,0.08-2.29-0.1c-0.7-0.18-1.34-0.53-1.9-1.05c-0.56-0.52-1.03-1.23-1.41-2.14
				L1250.71,995.55z"/>
			<path class="st22" d="M1269.28,986.78c0.86-0.4,1.68-0.69,2.47-0.85c0.79-0.16,1.52-0.18,2.19-0.06c0.67,0.12,1.27,0.39,1.8,0.81
				c0.53,0.42,0.97,1,1.33,1.75l2.53,5.34c0.2,0.42,0.24,0.81,0.13,1.18c-0.1,0.37-0.27,0.73-0.5,1.07c-0.74,1.11-2.05,2.11-3.92,3
				c-0.84,0.4-1.64,0.68-2.39,0.84c-0.75,0.16-1.45,0.2-2.08,0.11c-0.64-0.09-1.2-0.32-1.7-0.68c-0.5-0.37-0.9-0.88-1.21-1.53
				c-0.52-1.1-0.59-2.09-0.22-2.99c0.37-0.9,1.21-1.74,2.51-2.53l2.97-1.81l-0.08-0.17c-0.22-0.46-0.58-0.7-1.08-0.7
				c-0.5-0.01-1.13,0.17-1.89,0.53c-0.6,0.29-1.16,0.63-1.68,1.03c-0.51,0.4-0.95,0.8-1.32,1.21c-0.28-0.05-0.55-0.18-0.84-0.41
				c-0.28-0.23-0.5-0.5-0.65-0.82c-0.2-0.41-0.25-0.79-0.17-1.13c0.08-0.34,0.29-0.7,0.62-1.07c0.38-0.39,0.86-0.78,1.45-1.16
				C1268.15,987.37,1268.73,987.05,1269.28,986.78z M1273.92,996.06c0.27-0.13,0.55-0.3,0.85-0.51c0.3-0.21,0.51-0.4,0.62-0.57
				l-0.9-1.91l-1.65,0.96c-0.43,0.24-0.75,0.51-0.96,0.81c-0.21,0.3-0.24,0.6-0.09,0.92c0.15,0.32,0.39,0.52,0.74,0.6
				C1272.86,996.44,1273.33,996.34,1273.92,996.06z"/>
			<path class="st22" d="M1286.91,983.66c-0.25-0.48-0.57-0.77-0.96-0.85c-0.39-0.08-0.82,0-1.29,0.24c-0.31,0.16-0.6,0.36-0.86,0.6
				c-0.26,0.24-0.46,0.49-0.6,0.76l4.24,8.12c-0.13,0.13-0.35,0.3-0.66,0.53c-0.31,0.22-0.65,0.43-1.01,0.61
				c-0.34,0.18-0.66,0.32-0.96,0.41c-0.3,0.1-0.58,0.13-0.84,0.08c-0.26-0.04-0.5-0.16-0.73-0.35c-0.23-0.19-0.44-0.48-0.65-0.87
				l-3.66-7.02c-0.22-0.42-0.31-0.81-0.27-1.17c0.04-0.36,0.16-0.73,0.36-1.11c0.33-0.65,0.84-1.3,1.53-1.96
				c0.68-0.65,1.51-1.23,2.49-1.75c1.76-0.92,3.32-1.24,4.68-0.97c1.35,0.28,2.39,1.1,3.11,2.47l3.82,7.32
				c-0.13,0.13-0.35,0.3-0.66,0.52c-0.31,0.22-0.65,0.43-1,0.61c-0.34,0.18-0.66,0.32-0.96,0.41c-0.3,0.1-0.57,0.12-0.84,0.08
				c-0.26-0.04-0.51-0.16-0.73-0.35c-0.23-0.19-0.44-0.48-0.65-0.87L1286.91,983.66z"/>
			<path class="st22" d="M1295.06,973.41c0.83-0.47,1.63-0.81,2.41-1.02c0.78-0.22,1.5-0.29,2.18-0.22c0.68,0.07,1.3,0.3,1.85,0.68
				c0.56,0.38,1.04,0.93,1.45,1.65l2.9,5.15c0.23,0.4,0.3,0.79,0.22,1.16c-0.08,0.38-0.22,0.75-0.42,1.1
				c-0.66,1.16-1.89,2.25-3.7,3.27c-0.81,0.46-1.59,0.79-2.33,1.01c-0.74,0.21-1.43,0.3-2.07,0.25c-0.64-0.04-1.22-0.23-1.74-0.56
				c-0.52-0.33-0.96-0.81-1.31-1.44c-0.6-1.06-0.74-2.05-0.43-2.97c0.31-0.92,1.08-1.82,2.32-2.7l2.83-2.02l-0.09-0.16
				c-0.25-0.44-0.63-0.65-1.12-0.62c-0.5,0.03-1.12,0.25-1.85,0.67c-0.58,0.33-1.11,0.71-1.6,1.14c-0.48,0.43-0.89,0.87-1.23,1.3
				c-0.28-0.02-0.57-0.14-0.86-0.35c-0.3-0.21-0.53-0.46-0.71-0.77c-0.22-0.4-0.31-0.77-0.25-1.12c0.06-0.35,0.24-0.72,0.54-1.11
				c0.35-0.42,0.81-0.84,1.37-1.26C1293.97,974.07,1294.52,973.71,1295.06,973.41z M1300.34,982.34c0.26-0.15,0.53-0.33,0.82-0.57
				c0.28-0.23,0.48-0.44,0.58-0.62l-1.04-1.84l-1.58,1.07c-0.41,0.27-0.71,0.56-0.9,0.87c-0.19,0.31-0.2,0.62-0.02,0.92
				c0.17,0.31,0.43,0.49,0.78,0.55C1299.32,982.79,1299.77,982.66,1300.34,982.34z"/>
			<path class="st22" d="M1301.11,966.28c-0.34-0.58-0.43-1.18-0.27-1.8c0.16-0.62,0.55-1.12,1.19-1.49
				c0.64-0.37,1.27-0.48,1.88-0.31c0.62,0.17,1.1,0.54,1.43,1.12c0.34,0.58,0.43,1.18,0.27,1.8c-0.16,0.62-0.55,1.12-1.19,1.49
				c-0.64,0.37-1.27,0.48-1.88,0.31C1301.92,967.23,1301.44,966.86,1301.11,966.28z M1309.51,982.43c0.21-0.41,0.28-0.84,0.22-1.3
				c-0.07-0.46-0.23-0.92-0.5-1.38l-6.05-10.34c0.15-0.13,0.37-0.32,0.67-0.56c0.29-0.24,0.61-0.46,0.94-0.66
				c0.33-0.19,0.65-0.35,0.94-0.46c0.29-0.11,0.57-0.15,0.83-0.12c0.26,0.03,0.51,0.14,0.75,0.31c0.24,0.18,0.47,0.46,0.69,0.84
				l5.32,9.09c0.37,0.64,0.64,1.26,0.78,1.86c0.15,0.61,0.2,1.18,0.13,1.71c-0.06,0.54-0.24,1.03-0.52,1.47
				c-0.28,0.44-0.68,0.81-1.18,1.1c-0.67,0.39-1.31,0.5-1.93,0.32c-0.61-0.18-1.11-0.57-1.48-1.17L1309.51,982.43z"/>
			<path class="st22" d="M1309.54,965.69c0.13-0.13,0.34-0.32,0.64-0.55c0.3-0.24,0.63-0.46,0.97-0.66
				c0.34-0.19,0.65-0.35,0.94-0.46c0.29-0.11,0.57-0.15,0.83-0.12c0.26,0.03,0.51,0.14,0.75,0.31c0.24,0.18,0.46,0.46,0.69,0.84
				l2.85,4.91c0.36,0.62,0.77,0.98,1.23,1.07c0.46,0.09,0.98-0.03,1.55-0.37c0.35-0.2,0.62-0.4,0.8-0.59
				c0.19-0.19,0.32-0.35,0.41-0.48l-4.64-7.99c0.13-0.13,0.34-0.32,0.64-0.55c0.3-0.24,0.63-0.45,0.98-0.66
				c0.34-0.19,0.65-0.35,0.94-0.46c0.29-0.11,0.57-0.15,0.83-0.12c0.26,0.03,0.51,0.14,0.75,0.31c0.24,0.18,0.46,0.46,0.69,0.84
				l4.03,6.94c0.44,0.76,0.46,1.52,0.04,2.27c-0.34,0.64-0.83,1.27-1.46,1.87c-0.64,0.6-1.39,1.16-2.26,1.66
				c-0.82,0.48-1.63,0.82-2.43,1.04c-0.8,0.22-1.56,0.29-2.28,0.2c-0.72-0.09-1.4-0.35-2.02-0.79c-0.62-0.44-1.18-1.09-1.68-1.94
				L1309.54,965.69z"/>
			<path class="st22" d="M1327.16,954.82c0.82-0.47,1.62-0.82,2.4-1.04c0.78-0.22,1.5-0.3,2.18-0.23c0.68,0.07,1.3,0.29,1.86,0.67
				c0.56,0.38,1.05,0.93,1.46,1.64l2.94,5.13c0.23,0.4,0.3,0.79,0.23,1.17c-0.08,0.38-0.22,0.75-0.42,1.1
				c-0.65,1.17-1.88,2.26-3.68,3.3c-0.81,0.46-1.58,0.8-2.32,1.02c-0.74,0.22-1.42,0.31-2.07,0.27c-0.64-0.04-1.22-0.22-1.74-0.55
				c-0.52-0.33-0.96-0.8-1.32-1.43c-0.6-1.05-0.75-2.04-0.45-2.97c0.3-0.93,1.07-1.83,2.3-2.72l2.82-2.04l-0.09-0.16
				c-0.25-0.44-0.63-0.65-1.13-0.62c-0.5,0.03-1.11,0.26-1.85,0.68c-0.58,0.33-1.11,0.72-1.59,1.15c-0.48,0.44-0.89,0.88-1.23,1.31
				c-0.28-0.02-0.57-0.14-0.87-0.34c-0.3-0.2-0.54-0.46-0.71-0.76c-0.23-0.4-0.31-0.77-0.26-1.12c0.05-0.35,0.23-0.72,0.53-1.11
				c0.35-0.42,0.8-0.84,1.36-1.26C1326.08,955.49,1326.62,955.13,1327.16,954.82z M1332.5,963.71c0.26-0.15,0.53-0.34,0.81-0.57
				c0.28-0.23,0.47-0.44,0.57-0.62l-1.05-1.83l-1.57,1.08c-0.41,0.28-0.71,0.57-0.9,0.88c-0.19,0.31-0.19,0.62-0.02,0.92
				c0.17,0.31,0.44,0.49,0.78,0.54C1331.48,964.17,1331.93,964.04,1332.5,963.71z"/>
			<path class="st22" d="M1343.35,955.77c0.22,0.4,0.51,0.61,0.86,0.64c0.35,0.03,0.75-0.09,1.21-0.35
				c0.23-0.13,0.46-0.28,0.68-0.46c0.22-0.18,0.41-0.35,0.56-0.51c0.23,0.09,0.46,0.21,0.67,0.36c0.22,0.15,0.41,0.37,0.57,0.66
				c0.33,0.58,0.38,1.18,0.15,1.79c-0.23,0.61-0.9,1.23-2,1.85c-1.35,0.76-2.56,1.03-3.64,0.83c-1.07-0.21-2-1-2.77-2.38l-5.53-9.85
				c0.14-0.14,0.36-0.33,0.64-0.56c0.28-0.23,0.6-0.45,0.96-0.64c0.68-0.38,1.27-0.55,1.78-0.53c0.51,0.03,0.98,0.42,1.41,1.19
				l0.82,1.47l3.02-1.69c0.19,0.12,0.39,0.28,0.62,0.48c0.23,0.21,0.43,0.46,0.6,0.77c0.3,0.54,0.4,0.99,0.3,1.36
				c-0.11,0.37-0.36,0.67-0.76,0.89l-2.1,1.17L1343.35,955.77z"/>
			<path class="st22" d="M1359.27,944.84c0.51,0.96,0.82,1.9,0.93,2.81c0.1,0.91,0.03,1.76-0.24,2.56c-0.26,0.8-0.7,1.53-1.3,2.19
				c-0.61,0.66-1.37,1.23-2.28,1.72c-0.92,0.49-1.82,0.79-2.72,0.91c-0.89,0.12-1.75,0.06-2.56-0.18c-0.81-0.23-1.56-0.65-2.26-1.23
				c-0.69-0.59-1.28-1.35-1.78-2.28c-0.49-0.91-0.78-1.83-0.89-2.73c-0.1-0.9-0.02-1.76,0.24-2.56c0.26-0.81,0.69-1.54,1.28-2.22
				c0.6-0.68,1.35-1.26,2.27-1.74c0.92-0.49,1.82-0.79,2.72-0.9c0.9-0.11,1.75-0.05,2.57,0.19c0.81,0.24,1.57,0.65,2.26,1.24
				C1358.21,943.2,1358.79,943.95,1359.27,944.84z M1351.12,949.18c0.51,0.95,1.07,1.58,1.71,1.89c0.63,0.31,1.28,0.29,1.93-0.05
				c0.65-0.35,1.02-0.87,1.1-1.57c0.08-0.7-0.13-1.51-0.63-2.45c-0.5-0.93-1.06-1.55-1.68-1.87c-0.62-0.31-1.26-0.3-1.92,0.05
				c-0.65,0.35-1.02,0.87-1.11,1.56C1350.42,947.44,1350.62,948.25,1351.12,949.18z"/>
		</g>
	</g>
	<path class="st2" d="M1318.88,625.5l-128.62-47.69c-2.96,12.09-8.02,23.35-14.8,33.37L1234,698l2.62,45.37
		C1274.89,713.7,1303.98,672.75,1318.88,625.5z"/>
</g>
</svg>
