<?xml version="1.0" standalone="no"?><!-- Generator: Gravit.io --><svg xmlns="http://www.w3.org/2000/svg" xmlns:xlink="http://www.w3.org/1999/xlink" style="isolation:isolate" viewBox="0 0 240 30" width="240" height="30"><defs><clipPath id="_clipPath_XfyHkJ3kwZnU6sdFjLXpsTGcK1fttJX4"><rect width="240" height="30"/></clipPath></defs><g clip-path="url(#_clipPath_XfyHkJ3kwZnU6sdFjLXpsTGcK1fttJX4)"><g id="Group"><g id="Group"><g id="Group"><g id="Group"><g id="Group"><g id="Group"><path d=" M 20.385 28.575 L 15.225 28.575 L 15.145 28.365 L 4.075 1.635 L 9.425 1.635 L 17.805 21.915 L 26.205 1.635 L 31.525 1.635 L 20.485 28.365 L 20.385 28.575 Z " fill="rgb(237,237,237)"/><path d=" M 34.215 12.245 L 34.215 8.935 L 39.125 8.935 L 39.125 12.245 L 39.125 22.055 L 39.125 26.965 L 39.125 28.605 L 34.215 28.605 L 34.215 26.965 L 34.215 12.245 Z " fill="rgb(237,237,237)"/><path d=" M 46.725 21.245 L 46.025 21.245 C 44.305 21.245 42.855 20.225 42.185 18.775 C 41.945 18.235 41.805 17.645 41.805 17.035 L 41.805 16.305 L 41.805 13.885 L 41.805 13.165 C 41.805 10.855 43.705 8.945 46.025 8.945 L 60.355 8.945 C 62.665 8.945 64.575 10.845 64.575 13.165 L 64.575 13.895 L 64.575 14.645 L 59.665 14.645 L 59.665 13.895 L 46.745 13.895 L 46.745 16.315 L 60.355 16.315 C 62.045 16.315 63.525 17.335 64.195 18.785 C 64.435 19.325 64.575 19.915 64.575 20.525 L 64.575 21.255 L 64.575 24.395 C 64.575 26.705 62.675 28.615 60.355 28.615 L 46.035 28.615 C 43.725 28.615 41.815 26.715 41.815 24.395 L 41.815 22.915 L 46.725 22.915 L 46.725 23.665 L 59.645 23.665 L 59.645 21.245 C 59.655 21.245 46.725 21.245 46.725 21.245 Z " fill="rgb(237,237,237)"/><path d=" M 72.165 8.935 L 85.085 8.935 L 85.785 8.935 C 88.125 8.935 90.005 10.835 90.005 13.155 L 90.005 13.885 L 90.005 14.715 L 90.005 15.515 L 90.005 22.015 L 90.005 22.815 L 90.005 23.645 L 90.005 24.375 C 90.005 26.685 88.125 28.595 85.785 28.595 L 85.085 28.595 L 72.165 28.595 L 71.465 28.595 C 69.155 28.595 67.245 26.695 67.245 24.375 L 67.245 13.875 L 67.245 13.145 C 67.245 10.835 69.145 8.925 71.465 8.925 C 71.465 8.935 72.165 8.935 72.165 8.935 Z  M 85.085 15.525 L 85.085 14.725 L 85.085 13.895 L 82.775 13.895 L 72.165 13.895 L 72.165 23.675 L 82.775 23.675 L 85.085 23.675 L 85.085 22.845 L 85.085 22.045 L 85.085 15.525 Z " fill="rgb(237,237,237)"/><path d=" M 97.625 28.605 L 92.685 28.605 L 92.685 13.885 L 92.685 13.155 C 92.685 10.845 94.585 8.935 96.905 8.935 L 97.635 8.935 L 103.005 8.935 L 106.065 8.935 L 108.105 8.935 L 108.105 13.885 L 106.065 13.885 L 103.005 13.885 L 97.635 13.885 L 97.635 23.665 L 97.635 28.605 L 97.625 28.605 Z " fill="rgb(237,237,237)"/><path d=" M 121.535 28.575 L 121.535 2.575 L 121.535 1.635 L 126.475 1.635 L 134.595 21.775 L 142.645 1.685 L 142.675 1.635 L 147.585 1.635 L 147.585 2.625 L 147.585 28.575 L 142.645 28.575 L 142.645 14.905 L 137.245 28.385 L 137.165 28.575 L 132.005 28.575 L 131.925 28.385 L 126.475 14.845 L 126.475 28.575 L 121.535 28.575 L 121.535 28.575 Z  M 170.445 1.635 L 169.745 1.635 L 155.215 1.635 L 154.485 1.635 C 152.175 1.635 150.265 3.515 150.265 5.855 L 150.265 12.625 L 150.265 17.565 L 150.265 28.575 L 155.205 28.575 L 155.205 23.635 L 155.205 19.125 L 169.735 19.125 L 169.735 23.635 L 169.735 28.575 L 174.645 28.575 L 174.645 17.565 L 174.645 12.625 L 174.645 5.855 C 174.665 3.515 172.775 1.635 170.445 1.635 Z  M 169.745 12.625 L 169.745 14.215 L 155.215 14.215 L 155.215 12.625 L 155.215 6.555 L 169.745 6.555 L 169.745 12.625 Z  M 197.545 1.635 L 196.815 1.635 L 182.285 1.635 L 177.345 1.635 L 177.345 19.045 L 177.345 28.575 L 182.285 28.575 L 182.285 19.045 L 196.815 19.045 L 197.545 19.045 C 199.855 19.045 201.735 17.145 201.735 14.825 L 201.735 14.095 L 201.735 5.855 C 201.735 3.515 199.855 1.635 197.545 1.635 Z  M 196.825 14.095 L 182.295 14.095 L 182.295 6.545 L 196.825 6.545 L 196.825 14.095 Z  M 204.425 1.635 L 210.545 1.635 L 217.445 10.955 L 224.325 1.635 L 230.475 1.635 L 220.505 15.085 L 230.475 28.565 L 224.355 28.565 L 217.455 19.225 L 210.555 28.565 L 204.435 28.565 L 204.435 28.545 L 214.405 15.095 L 204.425 1.635 Z " fill="rgb(237,237,237)"/></g></g><g id="Group"><path d=" M 231.815 3.455 C 231.815 2.285 232.715 1.385 233.875 1.385 C 235.035 1.385 235.925 2.275 235.925 3.435 C 235.925 4.605 235.015 5.505 233.865 5.505 C 232.705 5.505 231.815 4.615 231.815 3.455 Z  M 235.525 3.455 C 235.525 2.495 234.815 1.755 233.875 1.755 C 232.925 1.755 232.235 2.465 232.235 3.435 C 232.235 4.395 232.945 5.135 233.885 5.135 C 234.825 5.135 235.525 4.415 235.525 3.455 Z  M 233.055 2.285 L 233.925 2.285 C 234.465 2.285 234.795 2.515 234.795 3.015 C 234.795 3.375 234.625 3.565 234.385 3.665 L 234.825 4.525 L 234.265 4.525 L 233.875 3.735 L 233.605 3.735 C 233.605 3.785 233.605 4.525 233.605 4.525 L 233.075 4.525 L 233.075 2.285 L 233.055 2.285 L 233.055 2.285 Z  M 233.905 3.345 C 234.155 3.345 234.285 3.255 234.285 3.045 C 234.285 2.845 234.165 2.755 233.905 2.755 L 233.605 2.755 L 233.605 3.345 C 233.595 3.345 233.905 3.345 233.905 3.345 Z " fill="rgb(237,237,237)"/></g></g></g></g></g></g></svg>