<?xml version="1.0" standalone="no"?><!-- Generator: Gravit.io --><svg xmlns="http://www.w3.org/2000/svg" xmlns:xlink="http://www.w3.org/1999/xlink" style="isolation:isolate" viewBox="0 0 380 80" width="380" height="80"><defs><clipPath id="_clipPath_lQ4AEf6Zecg1VpZANsXtIBaZLt5F8rFh"><rect width="380" height="80"/></clipPath></defs><g clip-path="url(#_clipPath_lQ4AEf6Zecg1VpZANsXtIBaZLt5F8rFh)"><g id="Group"><g id="Group"><linearGradient id="_lgradient_111" x1="-7.321699144396998%" y1="86.32557832558021%" x2="112.2364026987297%" y2="25.89103389103471%"><stop offset="1.9300000000000002%" stop-opacity="1" style="stop-color:rgb(44,216,235)"/><stop offset="99.87%" stop-opacity="1" style="stop-color:rgb(255,255,255)"/></linearGradient><path d=" M 60.679 58.761 C 60.679 57.871 60.679 57.151 60.679 56.431 C 60.689 47.621 60.699 38.811 60.709 30.001 C 60.709 28.281 60.719 28.281 62.389 28.281 C 65.889 28.271 65.889 28.271 65.889 31.761 C 65.889 41.381 65.899 51.011 65.899 60.631 C 65.899 63.141 65.099 63.951 62.609 63.971 C 59.519 63.981 56.419 64.001 53.329 63.961 C 52.329 63.951 51.979 64.251 51.999 65.291 C 52.059 68.511 52.029 71.731 52.009 74.961 C 51.999 76.951 51.089 77.871 49.079 77.871 C 34.859 77.881 20.639 77.881 6.409 77.871 C 4.329 77.871 3.349 76.861 3.349 74.771 C 3.339 60.681 3.339 46.581 3.349 32.491 C 3.349 30.201 4.369 29.201 6.659 29.191 C 9.669 29.181 12.679 29.191 15.679 29.191 C 16.139 29.191 16.599 29.191 17.249 29.191 C 17.249 27.531 17.249 26.001 17.249 24.471 C 17.249 22.491 17.239 20.521 17.249 18.541 C 17.259 16.341 18.269 15.321 20.499 15.311 C 25.609 15.291 30.729 15.311 35.839 15.311 C 41.859 15.311 47.869 15.341 53.889 15.301 C 54.939 15.291 55.359 15.581 55.289 16.681 C 55.199 17.911 55.269 19.151 55.269 20.551 C 44.339 20.551 33.539 20.551 22.649 20.551 C 22.649 23.481 22.649 26.241 22.649 28.971 C 25.009 29.291 27.369 29.461 29.649 29.941 C 41.199 32.351 50.129 42.031 51.729 53.781 C 51.909 55.091 51.869 56.441 52.049 57.751 C 52.099 58.111 52.549 58.711 52.839 58.711 C 55.359 58.791 57.899 58.761 60.679 58.761 Z  M 8.729 34.531 C 8.729 47.281 8.729 59.881 8.729 72.661 C 9.699 72.661 10.589 72.661 11.479 72.661 C 22.769 72.661 34.059 72.651 45.349 72.681 C 46.439 72.681 46.889 72.431 46.839 71.251 C 46.749 69.281 46.759 67.301 46.829 65.331 C 46.869 64.231 46.459 63.941 45.419 63.941 C 44.049 63.941 42.679 63.791 41.319 63.621 C 29.919 62.141 19.629 52.161 17.779 40.751 C 17.449 38.701 17.299 36.611 17.069 34.521 C 14.299 34.531 11.569 34.531 8.729 34.531 Z  M 22.779 34.341 C 22.649 34.731 22.599 34.811 22.589 34.891 C 22.569 35.101 22.559 35.321 22.559 35.531 C 22.709 43.781 26.259 50.211 33.009 54.861 C 36.779 57.461 41.049 58.641 45.619 58.721 C 46.009 58.731 46.749 58.331 46.749 58.131 C 46.679 56.271 46.489 54.421 46.309 52.231 C 43.519 54.081 40.789 54.841 37.839 54.561 C 34.829 54.271 32.179 53.081 30.139 50.831 C 25.759 46.001 25.689 40.711 28.859 34.941 C 26.729 34.741 24.759 34.541 22.779 34.341 Z  M 38.229 39.661 C 37.139 38.931 36.099 38.261 35.099 37.551 C 34.379 37.031 33.939 37.241 33.419 37.901 C 31.289 40.621 31.419 44.531 33.789 47.101 C 36.159 49.661 40.189 50.081 43.059 48.081 C 44.349 47.181 44.359 46.781 43.149 45.671 C 40.689 47.181 38.739 46.881 37.609 45.121 C 38.189 44.311 38.939 43.671 39.109 42.911 C 39.379 41.731 38.309 41.301 37.279 40.981 C 37.579 40.551 37.829 40.221 38.229 39.661 Z  M 69.669 13.781 C 65.759 13.781 61.929 13.781 58.099 13.781 C 58.099 17.701 58.099 21.531 58.099 25.381 C 61.999 25.381 65.799 25.381 69.669 25.381 C 69.669 21.421 69.669 17.621 69.669 13.781 Z  M 47.389 5.261 C 47.389 7.901 47.389 10.441 47.389 12.991 C 50.039 12.991 52.589 12.991 55.199 12.991 C 55.199 10.381 55.199 7.871 55.199 5.261 C 52.509 5.261 49.959 5.261 47.389 5.261 Z  M 67.039 5.201 C 67.039 2.121 67.039 2.121 63.909 2.121 C 60.759 2.121 60.759 2.121 60.759 5.291 C 60.759 8.391 60.759 8.391 63.869 8.391 C 67.039 8.391 67.039 8.391 67.039 5.201 Z " fill="url(#_lgradient_111)"/><g id="Group"><g id="Group"><g id="Group"><path d=" M 92.459 63.931 L 85.659 63.931 L 85.549 63.651 L 70.959 28.411 L 78.009 28.411 L 89.059 55.151 L 100.139 28.411 L 107.149 28.411 L 92.589 63.651 L 92.459 63.931 Z " fill="rgb(237,237,237)"/><path d=" M 110.699 42.401 L 110.699 38.041 L 117.179 38.041 L 117.179 42.401 L 117.179 55.331 L 117.179 61.811 L 117.179 63.971 L 110.699 63.971 L 110.699 61.811 L 110.699 42.401 Z " fill="rgb(237,237,237)"/><path d=" M 127.199 54.261 L 126.279 54.261 C 124.009 54.261 122.099 52.911 121.219 51.001 C 120.899 50.291 120.719 49.511 120.719 48.701 L 120.719 47.741 L 120.719 44.551 L 120.719 43.601 C 120.719 40.551 123.229 38.041 126.279 38.041 L 145.159 38.041 C 148.209 38.041 150.719 40.551 150.719 43.601 L 150.719 44.561 L 150.719 45.551 L 144.239 45.551 L 144.239 44.561 L 127.209 44.561 L 127.209 47.751 L 145.169 47.751 C 147.399 47.751 149.349 49.101 150.229 51.011 C 150.549 51.721 150.729 52.501 150.729 53.311 L 150.729 54.271 L 150.729 58.411 C 150.729 61.461 148.219 63.971 145.169 63.971 L 126.289 63.971 C 123.239 63.971 120.729 61.461 120.729 58.411 L 120.729 56.461 L 127.209 56.461 L 127.209 57.451 L 144.239 57.451 L 144.239 54.261 C 144.239 54.261 127.199 54.261 127.199 54.261 Z " fill="rgb(237,237,237)"/><path d=" M 160.739 38.041 L 177.769 38.041 L 178.689 38.041 C 181.769 38.041 184.249 40.551 184.249 43.601 L 184.249 44.561 L 184.249 45.661 L 184.249 46.721 L 184.249 55.291 L 184.249 56.351 L 184.249 57.451 L 184.249 58.411 C 184.249 61.461 181.769 63.971 178.689 63.971 L 177.769 63.971 L 160.739 63.971 L 159.819 63.971 C 156.769 63.971 154.259 61.461 154.259 58.411 L 154.259 44.561 L 154.259 43.601 C 154.259 40.551 156.769 38.041 159.819 38.041 C 159.819 38.041 160.739 38.041 160.739 38.041 Z  M 177.769 46.721 L 177.769 45.661 L 177.769 44.561 L 174.719 44.561 L 160.729 44.561 L 160.729 57.451 L 174.719 57.451 L 177.769 57.451 L 177.769 56.351 L 177.769 55.291 L 177.769 46.721 Z " fill="rgb(237,237,237)"/><path d=" M 194.309 63.971 L 187.789 63.971 L 187.789 44.561 L 187.789 43.601 C 187.789 40.551 190.299 38.041 193.349 38.041 L 194.309 38.041 L 201.389 38.041 L 205.429 38.041 L 208.119 38.041 L 208.119 44.561 L 205.429 44.561 L 201.389 44.561 L 194.309 44.561 L 194.309 57.451 L 194.309 63.971 Z " fill="rgb(237,237,237)"/><path d=" M 225.829 63.931 L 225.829 29.651 L 225.829 28.411 L 232.349 28.411 L 243.049 54.971 L 253.669 28.481 L 253.709 28.411 L 260.189 28.411 L 260.189 29.721 L 260.189 63.931 L 253.669 63.931 L 253.669 45.911 L 246.549 63.691 L 246.439 63.941 L 239.639 63.941 L 239.529 63.691 L 232.339 45.841 L 232.339 63.941 L 225.829 63.931 L 225.829 63.931 Z  M 290.319 28.411 L 289.399 28.411 L 270.239 28.411 L 269.279 28.411 C 266.229 28.411 263.719 30.891 263.719 33.971 L 263.719 42.891 L 263.719 49.411 L 263.719 63.931 L 270.239 63.931 L 270.239 57.411 L 270.239 51.461 L 289.399 51.461 L 289.399 57.411 L 289.399 63.931 L 295.879 63.931 L 295.879 49.411 L 295.879 42.901 L 295.879 33.981 C 295.879 30.891 293.399 28.411 290.319 28.411 Z  M 289.399 42.901 L 289.399 44.991 L 270.239 44.991 L 270.239 42.901 L 270.239 34.901 L 289.399 34.901 L 289.399 42.901 Z  M 326.049 28.411 L 325.089 28.411 L 305.929 28.411 L 299.409 28.411 L 299.409 51.361 L 299.409 63.931 L 305.929 63.931 L 305.929 51.361 L 325.089 51.361 L 326.049 51.361 C 329.099 51.361 331.569 48.851 331.569 45.801 L 331.569 44.841 L 331.569 33.971 C 331.579 30.891 329.099 28.411 326.049 28.411 Z  M 325.099 44.841 L 305.939 44.841 L 305.939 34.891 L 325.099 34.891 L 325.099 44.841 Z  M 335.119 28.411 L 343.189 28.411 L 352.289 40.701 L 361.359 28.411 L 369.469 28.411 L 356.329 46.151 L 369.469 63.931 L 361.399 63.931 L 352.299 51.611 L 343.199 63.931 L 335.129 63.931 L 335.129 63.901 L 348.269 46.161 L 335.119 28.411 Z " fill="rgb(237,237,237)"/></g></g><g id="Group"><path d=" M 371.239 30.811 C 371.239 29.271 372.429 28.081 373.959 28.081 C 375.489 28.081 376.659 29.251 376.659 30.781 C 376.659 32.321 375.459 33.511 373.939 33.511 C 372.409 33.511 371.239 32.341 371.239 30.811 Z  M 376.129 30.811 C 376.129 29.541 375.199 28.571 373.949 28.571 C 372.699 28.571 371.789 29.511 371.789 30.781 C 371.789 32.051 372.719 33.021 373.969 33.021 C 375.209 33.021 376.129 32.081 376.129 30.811 Z  M 372.879 29.261 L 374.029 29.261 C 374.739 29.261 375.179 29.571 375.179 30.221 C 375.179 30.691 374.959 30.941 374.639 31.081 L 375.219 32.211 L 374.479 32.211 L 373.959 31.171 L 373.599 31.171 C 373.599 31.231 373.599 32.211 373.599 32.211 L 372.899 32.211 L 372.899 29.261 L 372.879 29.261 Z  M 373.989 30.661 C 374.319 30.661 374.489 30.541 374.489 30.261 C 374.489 30.001 374.329 29.881 373.989 29.881 L 373.589 29.881 L 373.589 30.661 C 373.589 30.661 373.989 30.661 373.989 30.661 Z " fill="rgb(237,237,237)"/></g></g></g><g id="Group"><path d=" M 330.479 65.341 C 330.459 65.301 330.429 65.291 330.389 65.301 C 330.379 65.301 330.369 65.291 330.359 65.291 C 329.199 65.291 328.049 65.291 326.889 65.291 C 326.829 65.291 326.759 65.281 326.699 65.311 C 326.659 65.301 326.629 65.301 326.599 65.331 C 326.499 65.311 326.399 65.331 326.309 65.381 C 326.269 65.371 326.239 65.371 326.209 65.401 C 326.109 65.401 326.019 65.431 325.939 65.481 C 325.889 65.481 325.849 65.491 325.819 65.531 C 325.749 65.551 325.669 65.551 325.609 65.611 C 325.589 65.621 325.559 65.631 325.539 65.631 L 325.549 65.631 C 325.539 65.631 325.529 65.641 325.529 65.651 C 325.489 65.651 325.459 65.661 325.439 65.701 C 325.379 65.721 325.339 65.751 325.299 65.781 C 325.269 65.781 325.249 65.791 325.239 65.821 C 325.229 65.831 325.209 65.831 325.199 65.841 C 325.179 65.831 325.179 65.841 325.179 65.851 C 325.109 65.881 325.059 65.941 324.999 65.981 L 325.009 65.981 C 324.489 66.381 324.139 66.901 323.949 67.531 C 323.919 67.621 323.879 67.721 323.899 67.821 C 323.869 67.871 323.869 67.921 323.859 67.981 C 323.809 68.241 323.829 68.511 323.829 68.781 C 323.829 71.021 323.829 73.271 323.829 75.511 C 323.829 75.571 323.819 75.641 323.839 75.701 C 323.809 75.861 323.809 75.861 323.929 75.871 C 323.949 75.881 323.969 75.881 323.989 75.871 C 324.039 75.871 324.099 75.881 324.149 75.881 C 324.939 75.881 325.739 75.881 326.529 75.881 C 326.609 75.881 326.679 75.871 326.759 75.871 C 326.869 75.891 326.869 75.831 326.869 75.751 C 326.869 74.691 326.869 73.641 326.869 72.581 C 326.869 72.521 326.889 72.461 326.849 72.401 C 326.859 72.331 326.859 72.261 326.839 72.201 C 326.859 72.181 326.879 72.161 326.879 72.141 C 326.919 72.141 326.959 72.141 326.989 72.141 C 327.789 72.141 328.589 72.141 329.389 72.141 C 329.489 72.141 329.599 72.151 329.699 72.131 L 329.709 72.141 L 329.719 72.131 C 329.739 72.141 329.769 72.151 329.789 72.131 C 329.859 72.131 329.859 72.081 329.859 72.031 C 329.859 71.971 329.849 71.911 329.849 71.851 C 329.849 70.981 329.849 70.111 329.849 69.241 C 329.849 69.041 329.839 69.041 329.649 69.051 C 329.619 69.051 329.599 69.051 329.569 69.051 C 328.729 69.051 327.879 69.051 327.039 69.051 C 326.879 69.051 326.879 69.051 326.849 68.881 C 326.869 68.841 326.869 68.791 326.849 68.751 C 326.859 68.661 326.899 68.571 326.929 68.491 C 326.969 68.461 327.009 68.431 327.029 68.381 C 327.149 68.321 327.279 68.291 327.419 68.291 C 328.019 68.291 328.629 68.291 329.229 68.291 C 329.619 68.291 329.999 68.281 330.389 68.301 C 330.469 68.301 330.509 68.271 330.519 68.191 C 330.519 68.151 330.519 68.111 330.519 68.081 C 330.519 67.191 330.519 66.291 330.529 65.401 C 330.509 65.361 330.519 65.331 330.479 65.341 Z " fill="rgb(237,237,237)"/><path d=" M 359.129 71.301 C 359.129 71.201 359.139 71.111 359.119 71.011 C 359.129 70.981 359.139 70.941 359.119 70.911 C 359.119 70.861 359.089 70.841 359.049 70.851 C 358.969 70.851 358.899 70.851 358.819 70.851 C 358.509 70.861 358.199 70.841 357.889 70.861 C 357.529 70.841 357.169 70.841 356.799 70.861 C 356.609 70.841 356.409 70.851 356.209 70.851 C 356.079 70.851 356.079 70.861 356.079 70.991 C 356.079 71.571 356.079 72.151 356.079 72.731 C 356.079 72.831 356.039 72.881 355.949 72.911 C 355.869 72.871 355.789 72.881 355.709 72.891 C 355.619 72.831 355.509 72.871 355.409 72.841 C 355.259 72.791 355.109 72.751 354.959 72.711 C 354.909 72.661 354.849 72.641 354.779 72.621 C 354.769 72.601 354.759 72.591 354.729 72.591 C 354.719 72.561 354.689 72.551 354.659 72.551 C 354.659 72.531 354.649 72.531 354.639 72.531 C 354.619 72.511 354.589 72.491 354.559 72.491 C 354.549 72.461 354.529 72.451 354.499 72.451 C 354.429 72.361 354.309 72.311 354.239 72.211 L 354.239 72.221 C 354.199 72.181 354.179 72.131 354.119 72.131 L 354.119 72.121 L 354.109 72.121 C 354.089 72.061 354.049 72.001 353.999 71.961 C 353.989 71.931 353.969 71.901 353.939 71.881 C 353.939 71.861 353.929 71.851 353.919 71.851 C 353.909 71.831 353.899 71.811 353.879 71.801 C 353.879 71.781 353.869 71.771 353.859 71.761 C 353.849 71.731 353.849 71.701 353.809 71.691 C 353.799 71.671 353.779 71.651 353.769 71.621 C 353.739 71.511 353.709 71.401 353.639 71.301 C 353.649 71.261 353.649 71.231 353.619 71.201 C 353.609 71.071 353.549 70.941 353.539 70.811 C 353.539 70.681 353.539 70.541 353.539 70.411 C 353.559 70.361 353.559 70.301 353.549 70.251 C 353.559 70.231 353.569 70.201 353.559 70.171 C 353.599 70.121 353.629 70.061 353.619 69.991 C 353.749 69.591 353.949 69.231 354.269 68.951 C 354.299 68.921 354.319 68.891 354.349 68.861 C 354.369 68.861 354.369 68.851 354.369 68.841 C 354.419 68.811 354.469 68.781 354.509 68.741 C 354.549 68.741 354.569 68.721 354.589 68.691 C 354.619 68.691 354.629 68.671 354.639 68.651 C 354.659 68.651 354.669 68.641 354.679 68.631 C 354.719 68.631 354.749 68.621 354.769 68.591 C 354.959 68.501 355.159 68.431 355.349 68.361 C 355.389 68.371 355.419 68.371 355.449 68.341 C 355.559 68.331 355.669 68.311 355.779 68.311 C 355.909 68.301 356.039 68.301 356.159 68.291 C 356.199 68.301 356.249 68.301 356.289 68.291 C 356.509 68.311 356.719 68.311 356.939 68.291 C 356.959 68.301 356.989 68.301 357.009 68.291 C 357.289 68.311 357.569 68.311 357.859 68.291 C 357.909 68.301 357.949 68.301 357.999 68.291 C 358.309 68.311 358.619 68.291 358.929 68.301 C 359.069 68.301 359.079 68.291 359.079 68.141 C 359.079 67.621 359.079 67.111 359.079 66.591 C 359.079 66.201 359.079 65.811 359.089 65.421 C 359.089 65.371 359.089 65.321 359.019 65.321 C 358.979 65.301 358.949 65.301 358.909 65.311 C 358.889 65.311 358.869 65.301 358.849 65.301 C 357.849 65.301 356.839 65.301 355.839 65.301 C 355.799 65.301 355.749 65.291 355.709 65.311 C 355.649 65.301 355.579 65.301 355.519 65.321 C 355.329 65.311 355.139 65.341 354.949 65.391 C 354.879 65.381 354.799 65.381 354.739 65.431 C 354.679 65.421 354.629 65.451 354.579 65.471 C 354.519 65.461 354.459 65.481 354.409 65.511 C 354.379 65.511 354.359 65.511 354.349 65.541 C 354.319 65.541 354.299 65.541 354.279 65.561 C 354.259 65.551 354.239 65.561 354.219 65.571 C 354.189 65.561 354.169 65.571 354.149 65.591 C 354.089 65.591 354.029 65.631 353.979 65.651 C 353.919 65.651 353.869 65.681 353.829 65.721 C 353.799 65.721 353.779 65.731 353.759 65.751 C 353.739 65.751 353.719 65.751 353.709 65.771 C 353.649 65.791 353.599 65.801 353.559 65.851 C 353.539 65.861 353.529 65.871 353.509 65.881 C 353.489 65.881 353.479 65.881 353.479 65.901 C 353.459 65.901 353.429 65.911 353.419 65.931 C 353.389 65.931 353.369 65.941 353.359 65.961 C 353.019 66.121 352.729 66.341 352.449 66.591 C 352.299 66.721 352.139 66.851 352.029 67.011 C 352.009 67.011 351.999 67.031 351.989 67.051 C 351.919 67.081 351.889 67.151 351.839 67.201 L 351.829 67.201 L 351.829 67.211 C 351.719 67.301 351.659 67.421 351.569 67.531 C 351.069 68.191 350.759 68.931 350.629 69.751 C 350.569 70.091 350.559 70.441 350.569 70.791 C 350.589 71.281 350.659 71.771 350.809 72.241 C 350.939 72.651 351.129 73.041 351.359 73.401 C 351.709 73.941 352.149 74.401 352.649 74.801 C 352.989 75.071 353.369 75.271 353.749 75.471 C 353.839 75.511 353.929 75.551 354.029 75.561 L 354.039 75.561 C 354.119 75.621 354.219 75.651 354.319 75.661 C 354.379 75.701 354.439 75.711 354.509 75.711 C 354.529 75.731 354.559 75.731 354.579 75.731 C 354.869 75.841 355.179 75.871 355.489 75.881 C 355.569 75.921 355.649 75.901 355.729 75.901 C 356.759 75.901 357.789 75.901 358.819 75.901 C 358.869 75.901 358.919 75.891 358.969 75.891 C 359.019 75.911 359.079 75.931 359.119 75.871 C 359.129 75.871 359.139 75.861 359.129 75.851 C 359.149 75.841 359.149 75.821 359.139 75.811 C 359.139 75.061 359.139 74.301 359.139 73.551 C 359.139 73.541 359.139 73.531 359.129 73.521 C 359.129 73.481 359.139 73.431 359.139 73.391 C 359.129 72.671 359.129 71.981 359.129 71.301 Z  M 354.689 65.481 L 354.689 65.481 L 354.689 65.481 L 354.689 65.481 Z " fill="rgb(237,237,237)"/><path d=" M 338.449 75.461 C 338.449 74.711 338.439 73.961 338.429 73.211 C 338.429 73.111 338.469 72.981 338.409 72.911 C 338.339 72.831 338.209 72.881 338.109 72.881 C 337.069 72.881 336.029 72.881 334.989 72.881 C 334.779 72.881 334.579 72.891 334.369 72.861 C 334.239 72.771 334.129 72.671 334.079 72.531 C 334.079 72.491 334.079 72.451 334.079 72.421 C 334.079 70.151 334.079 67.871 334.079 65.601 C 334.079 65.531 334.079 65.471 334.079 65.401 C 334.079 65.331 334.049 65.301 333.989 65.291 C 333.959 65.291 333.919 65.291 333.889 65.291 C 332.989 65.291 332.089 65.291 331.189 65.291 C 331.059 65.291 331.039 65.301 331.039 65.441 C 331.039 66.511 331.039 67.591 331.039 68.661 C 331.039 70.101 331.039 71.541 331.039 72.981 C 331.039 73.091 331.039 73.211 331.099 73.311 C 331.089 73.341 331.099 73.361 331.109 73.381 C 331.099 73.431 331.099 73.471 331.129 73.511 C 331.119 73.561 331.139 73.601 331.179 73.641 C 331.169 73.671 331.179 73.681 331.199 73.701 C 331.189 73.751 331.199 73.801 331.239 73.841 C 331.239 73.871 331.259 73.901 331.279 73.921 C 331.279 73.961 331.289 74.001 331.329 74.031 C 331.329 74.061 331.339 74.081 331.369 74.101 C 331.369 74.151 331.389 74.181 331.409 74.221 C 331.609 74.561 331.849 74.861 332.149 75.111 C 332.179 75.141 332.199 75.171 332.239 75.171 L 332.239 75.171 C 332.269 75.201 332.289 75.231 332.319 75.251 C 332.779 75.601 333.299 75.811 333.879 75.861 C 334.369 75.901 334.859 75.881 335.349 75.871 C 335.399 75.891 335.459 75.881 335.509 75.881 C 336.009 75.881 336.519 75.881 337.019 75.881 C 337.069 75.881 337.129 75.891 337.179 75.871 C 337.509 75.891 337.829 75.881 338.159 75.871 C 338.219 75.891 338.269 75.891 338.329 75.871 C 338.399 75.871 338.459 75.861 338.439 75.771 C 338.459 75.671 338.449 75.571 338.449 75.461 Z " fill="rgb(237,237,237)"/><path d=" M 322.469 65.471 C 322.469 65.401 322.409 65.341 322.339 65.341 L 319.719 65.341 C 319.649 65.341 319.589 65.401 319.589 65.471 L 319.589 67.851 L 322.479 67.851 L 322.479 65.471 L 322.469 65.471 Z " fill="rgb(237,237,237)"/><rect x="319.579" y="68.001" width="2.89" height="2.52" transform="matrix(1,0,0,1,0,0)" fill="rgb(237,237,237)"/><rect x="319.579" y="70.661" width="2.89" height="2.52" transform="matrix(1,0,0,1,0,0)" fill="rgb(237,237,237)"/><path d=" M 322.339 75.841 C 322.409 75.841 322.469 75.781 322.469 75.711 L 322.469 73.331 L 319.579 73.331 L 319.579 75.711 C 319.579 75.781 319.639 75.841 319.709 75.841 L 322.339 75.841 Z " fill="rgb(237,237,237)"/><path d=" M 344.339 65.231 C 341.379 65.231 338.979 67.631 338.979 70.591 C 338.979 73.551 341.379 75.951 344.339 75.951 C 347.299 75.951 349.699 73.551 349.699 70.591 C 349.699 67.631 347.299 65.231 344.339 65.231 Z  M 344.339 72.901 C 343.059 72.901 342.029 71.861 342.029 70.591 C 342.029 69.321 343.069 68.281 344.339 68.281 C 345.609 68.281 346.649 69.321 346.649 70.591 C 346.649 71.861 345.619 72.901 344.339 72.901 Z " fill="rgb(237,237,237)"/><path d=" M 365.029 65.231 C 362.069 65.231 359.669 67.631 359.669 70.591 C 359.669 73.551 362.069 75.951 365.029 75.951 C 367.989 75.951 370.389 73.551 370.389 70.591 C 370.379 67.631 367.989 65.231 365.029 65.231 Z  M 365.029 72.901 C 363.749 72.901 362.719 71.861 362.719 70.591 C 362.719 69.321 363.759 68.281 365.029 68.281 C 366.309 68.281 367.339 69.321 367.339 70.591 C 367.339 71.861 366.309 72.901 365.029 72.901 Z " fill="rgb(237,237,237)"/></g><g id="Group"><path d=" M 314.579 65.301 L 315.449 65.301 C 316.059 65.301 316.319 65.571 316.319 65.951 C 316.319 66.291 316.089 66.491 315.819 66.551 L 315.819 66.561 C 316.139 66.621 316.409 66.831 316.409 67.191 C 316.409 67.571 316.159 67.891 315.539 67.891 L 314.589 67.891 L 314.579 65.301 L 314.579 65.301 Z  M 315.439 66.481 C 315.879 66.481 316.149 66.321 316.149 65.971 C 316.149 65.621 315.929 65.471 315.449 65.471 L 314.759 65.471 L 314.759 66.491 L 315.439 66.491 L 315.439 66.481 L 315.439 66.481 Z  M 315.549 67.731 C 316.029 67.731 316.239 67.531 316.239 67.191 C 316.239 66.811 315.939 66.641 315.459 66.641 L 314.759 66.641 L 314.759 67.731 C 314.759 67.731 315.549 67.731 315.549 67.731 Z " fill="rgb(237,237,237)"/><path d=" M 317.579 66.741 L 316.719 65.301 L 316.919 65.301 L 317.679 66.591 L 318.429 65.301 L 318.619 65.301 L 317.759 66.741 L 317.759 67.891 L 317.589 67.891 L 317.589 66.741 L 317.579 66.741 Z " fill="rgb(237,237,237)"/></g></g></g></svg>