<?xml version="1.0" encoding="utf-8"?>
<!-- Generator: Adobe Illustrator 23.0.1, SVG Export Plug-In . SVG Version: 6.00 Build 0)  -->
<svg version="1.1" id="Capa_1" xmlns="http://www.w3.org/2000/svg" xmlns:xlink="http://www.w3.org/1999/xlink" x="0px" y="0px"
	 viewBox="0 0 792 612" style="enable-background:new 0 0 792 612;" xml:space="preserve">
<style type="text/css">
	.st0{fill:url(#SVGID_1_);}
	.st1{fill:#312685;}
	.st2{fill:url(#SVGID_2_);}
	.st3{fill:#2272B9;}
	.st4{fill:#019FE3;}
	.st5{fill:#38ABE1;}
</style>
<g>
	<linearGradient id="SVGID_1_" gradientUnits="userSpaceOnUse" x1="88.0454" y1="310.2072" x2="198.8819" y2="310.2072">
		<stop  offset="1.281419e-03" style="stop-color:#312685"/>
		<stop  offset="0.9807" style="stop-color:#2CD8EB"/>
	</linearGradient>
	<path class="st0" d="M183.86,341.57c0-1.49,0-2.7,0-3.9c0.02-14.72,0.03-29.44,0.05-44.16c0-2.87,0.01-2.87,2.81-2.88
		c5.84-0.01,5.84-0.01,5.85,5.81c0.01,16.08,0.01,32.17,0.02,48.25c0,4.19-1.33,5.56-5.5,5.57c-5.17,0.02-10.34,0.06-15.51-0.02
		c-1.66-0.02-2.26,0.49-2.23,2.22c0.1,5.38,0.05,10.77,0.02,16.16c-0.02,3.33-1.54,4.86-4.89,4.86c-23.77,0.02-47.53,0.02-71.3,0.01
		c-3.47,0-5.12-1.69-5.12-5.18c-0.01-23.55-0.01-47.1,0-70.66c0-3.82,1.71-5.5,5.53-5.52c5.03-0.02,10.05,0,15.08,0
		c0.77,0,1.55,0,2.62,0c0-2.77,0-5.33,0-7.89c0-3.3-0.02-6.61,0-9.91c0.02-3.68,1.7-5.38,5.43-5.4c8.54-0.03,17.09,0,25.63,0
		c10.05,0,20.11,0.04,30.16-0.02c1.75-0.01,2.46,0.47,2.33,2.3c-0.15,2.06-0.03,4.13-0.03,6.47c-18.27,0-36.32,0-54.51,0
		c0,4.89,0,9.52,0,14.08c3.95,0.53,7.88,0.81,11.7,1.62c19.3,4.06,34.22,20.23,36.89,39.87c0.3,2.2,0.24,4.44,0.54,6.63
		c0.08,0.61,0.84,1.6,1.31,1.61C174.97,341.62,179.2,341.57,183.86,341.57z M97.05,301.07c0,21.31,0,42.37,0,63.71
		c1.62,0,3.11,0,4.59,0c18.87,0,37.74-0.02,56.61,0.04c1.82,0.01,2.58-0.41,2.48-2.38c-0.15-3.29-0.14-6.6-0.01-9.9
		c0.07-1.83-0.62-2.31-2.35-2.32c-2.28-0.01-4.58-0.25-6.85-0.54c-19.08-2.47-36.28-19.14-39.36-38.2
		c-0.55-3.43-0.8-6.91-1.18-10.41C106.36,301.07,101.79,301.07,97.05,301.07z M120.52,300.77c-0.22,0.66-0.3,0.79-0.31,0.92
		c-0.03,0.36-0.05,0.72-0.04,1.07c0.25,13.78,6.19,24.53,17.46,32.3c6.3,4.35,13.44,6.33,21.07,6.45c0.65,0.01,1.89-0.66,1.88-0.98
		c-0.11-3.1-0.43-6.2-0.73-9.86c-4.67,3.08-9.23,4.36-14.15,3.89c-5.04-0.48-9.46-2.47-12.87-6.23c-7.32-8.07-7.43-16.92-2.14-26.56
		C127.12,301.43,123.83,301.1,120.52,300.77z M146.34,309.66c-1.82-1.22-3.56-2.33-5.24-3.53c-1.21-0.86-1.95-0.52-2.81,0.59
		c-3.57,4.54-3.34,11.08,0.63,15.37c3.95,4.27,10.7,4.98,15.49,1.63c2.15-1.51,2.18-2.17,0.15-4.03c-4.12,2.52-7.38,2.03-9.26-0.92
		c0.96-1.36,2.22-2.42,2.51-3.69c0.45-1.98-1.33-2.69-3.06-3.23C145.25,311.15,145.67,310.58,146.34,309.66z M198.88,266.4
		c-6.54,0-12.93,0-19.34,0c0,6.56,0,12.95,0,19.39c6.52,0,12.87,0,19.34,0C198.88,279.17,198.88,272.82,198.88,266.4z
		 M161.65,252.16c0,4.41,0,8.66,0,12.91c4.43,0,8.69,0,13.06,0c0-4.36,0-8.55,0-12.91C170.2,252.16,165.94,252.16,161.65,252.16z
		 M194.49,252.08c0-5.15,0-5.15-5.23-5.15c-5.26,0-5.26,0-5.26,5.3c0,5.18,0,5.18,5.19,5.18
		C194.49,257.4,194.49,257.4,194.49,252.08z"/>
	<g>
		<g>
			<g>
				<path class="st1" d="M236.96,350.22H225.6l-0.18-0.47l-24.38-58.89h11.78l18.47,44.68l18.52-44.68h11.72l-24.32,58.89
					L236.96,350.22z"/>
				<path class="st1" d="M267.44,314.23v-7.28h10.83v7.28v21.6v10.83v3.61h-10.83v-3.61V314.23z"/>
				<path class="st1" d="M295.02,334.06h-1.54c-3.79,0-6.98-2.25-8.46-5.44c-0.53-1.18-0.83-2.49-0.83-3.85v-1.6v-5.33v-1.6
					c0-5.09,4.2-9.29,9.29-9.29h31.54c5.09,0,9.29,4.2,9.29,9.29v1.6v1.66h-10.83v-1.66h-28.47v5.33h30.01
					c3.73,0,6.98,2.25,8.46,5.45c0.53,1.18,0.83,2.49,0.83,3.85v1.6v6.92c0,5.09-4.2,9.29-9.29,9.29h-31.54
					c-5.09,0-9.29-4.2-9.29-9.29v-3.26h10.83v1.66h28.47v-5.33H295.02z"/>
				<path class="st1" d="M351.06,306.95h28.47h1.54c5.15,0,9.29,4.2,9.29,9.29v1.6v1.83v1.78v14.32v1.78v1.83v1.6
					c0,5.09-4.14,9.29-9.29,9.29h-1.54h-28.47h-1.54c-5.09,0-9.29-4.2-9.29-9.29v-23.14v-1.6c0-5.09,4.2-9.29,9.29-9.29H351.06z
					 M379.53,321.45v-1.78v-1.83h-5.09h-23.38v21.54h23.38h5.09v-1.83v-1.78V321.45z"/>
				<path class="st1" d="M407.17,350.27h-10.89v-32.43v-1.6c0-5.09,4.2-9.29,9.29-9.29h1.6H419h6.75h4.5v10.89h-4.5H419h-11.84
					v21.54V350.27z"/>
				<linearGradient id="SVGID_2_" gradientUnits="userSpaceOnUse" x1="459.8388" y1="320.535" x2="699.8822" y2="320.535">
					<stop  offset="1.281419e-03" style="stop-color:#312685"/>
					<stop  offset="0.9807" style="stop-color:#2CD8EB"/>
				</linearGradient>
				<path class="st2" d="M459.84,350.22v-57.29v-2.07h10.89l17.87,44.39l17.75-44.27l0.06-0.12h10.83v2.19v57.17h-10.89v-30.12
					l-11.9,29.71l-0.18,0.41h-11.36l-0.18-0.41l-12.01-29.83v30.24H459.84z M567.61,290.85h-1.54h-32.02h-1.6
					c-5.09,0-9.29,4.14-9.29,9.29v14.91v10.89v24.26h10.89v-10.89v-9.94h32.02v9.94v10.89h10.83v-24.26v-10.89v-14.91
					C576.9,295,572.76,290.85,567.61,290.85z M566.07,315.06v3.49h-32.02v-3.49v-13.38h32.02V315.06z M627.33,290.85h-1.6h-32.02
					h-10.89v38.35v21.01h10.89V329.2h32.02h1.6c5.09,0,9.23-4.2,9.23-9.29v-1.6v-18.17C636.56,295,632.41,290.85,627.33,290.85z
					 M625.73,318.32h-32.02v-16.63h32.02V318.32z M642.47,290.85h13.49l15.21,20.54l15.15-20.54h13.55l-21.96,29.65l21.96,29.71
					h-13.49l-15.21-20.6l-15.21,20.6h-13.49v-0.06l21.96-29.65L642.47,290.85z"/>
			</g>
		</g>
		<g>
			<path class="st1" d="M702.84,294.86c0-2.57,1.99-4.56,4.55-4.56c2.55,0,4.52,1.96,4.52,4.52c0,2.57-2,4.56-4.55,4.56
				C704.79,299.38,702.84,297.42,702.84,294.86z M711,294.86c0-2.13-1.55-3.74-3.64-3.74c-2.08,0-3.61,1.57-3.61,3.69
				c0,2.13,1.55,3.74,3.64,3.74C709.47,298.55,711,296.98,711,294.86z M705.58,292.27h1.92c1.19,0,1.92,0.52,1.92,1.61
				c0,0.78-0.37,1.21-0.91,1.43l0.97,1.89h-1.24l-0.88-1.74h-0.6c0,0.09,0,1.74,0,1.74h-1.17V292.27z M707.43,294.61
				c0.56,0,0.83-0.2,0.83-0.66c0-0.44-0.27-0.64-0.83-0.64h-0.67v1.3H707.43z"/>
		</g>
	</g>
</g>
<g>
	<path class="st1" d="M634.72,352.56c-0.03-0.07-0.09-0.08-0.16-0.06c-0.02-0.01-0.03-0.02-0.05-0.02c-1.93,0-3.87,0-5.8,0
		c-0.11,0-0.22-0.02-0.32,0.04c-0.06-0.01-0.12-0.02-0.18,0.03c-0.17-0.04-0.33,0-0.48,0.08c-0.06-0.01-0.12-0.01-0.17,0.03
		c-0.16,0-0.31,0.05-0.45,0.13c-0.08,0-0.15,0.02-0.2,0.08c-0.12,0.03-0.25,0.04-0.34,0.14c-0.04,0.01-0.08,0.03-0.12,0.04
		c0,0,0.01,0,0.01,0c-0.02,0.01-0.03,0.02-0.03,0.04c-0.07,0-0.12,0.02-0.15,0.08c-0.09,0.03-0.17,0.08-0.24,0.14
		c-0.06-0.01-0.09,0.02-0.11,0.07c-0.02,0.01-0.04,0.02-0.06,0.03c-0.03-0.01-0.04,0-0.04,0.02c-0.12,0.05-0.2,0.14-0.31,0.21
		c0,0,0.01,0,0.01,0c-0.87,0.67-1.46,1.54-1.78,2.59c-0.05,0.16-0.11,0.31-0.09,0.48c-0.05,0.08-0.06,0.17-0.07,0.26
		c-0.08,0.44-0.05,0.89-0.05,1.33c-0.01,3.75,0,7.5,0,11.25c0,0.11-0.02,0.22,0.02,0.32c-0.05,0.26-0.05,0.26,0.15,0.28
		c0.03,0.02,0.06,0.02,0.09,0c0.09,0.01,0.18,0.02,0.27,0.02c1.33,0,2.65,0,3.98,0c0.13,0,0.25-0.01,0.38-0.01
		c0.18,0.04,0.19-0.07,0.19-0.21c0-1.77,0-3.53-0.01-5.3c0-0.1,0.03-0.2-0.03-0.29c0.02-0.11,0.02-0.23-0.01-0.34
		c0.03-0.03,0.06-0.06,0.06-0.11c0.06,0,0.13-0.01,0.19-0.01c1.34,0,2.68,0,4.01,0c0.17,0,0.35,0.02,0.52-0.02l0.02,0.01l0.02-0.01
		c0.04,0.02,0.08,0.03,0.12,0c0.12,0,0.12-0.09,0.12-0.17c0-0.1-0.01-0.2-0.01-0.3c0-1.46,0-2.91,0-4.37c0-0.33-0.01-0.34-0.33-0.32
		c-0.05,0-0.09,0-0.14,0c-1.41,0-2.82,0-4.23,0c-0.28,0-0.28,0-0.32-0.28c0.04-0.07,0.04-0.15,0.01-0.22
		c0.02-0.15,0.08-0.3,0.13-0.44c0.07-0.05,0.13-0.1,0.17-0.18c0.21-0.1,0.42-0.15,0.66-0.15c1.01,0,2.02,0,3.03,0
		c0.65,0,1.29-0.01,1.94,0.02c0.14,0.01,0.2-0.05,0.21-0.19c0.01-0.06,0-0.13,0-0.19c0-1.49,0.01-2.99,0.01-4.48
		C634.77,352.6,634.78,352.55,634.72,352.56z"/>
	<path class="st1" d="M682.6,362.52c0-0.16,0.02-0.33-0.02-0.49c0.03-0.06,0.03-0.11,0-0.17c0.01-0.09-0.04-0.11-0.12-0.11
		c-0.13,0-0.25,0.01-0.38,0.01c-0.52,0.01-1.03-0.02-1.55,0.02c-0.61-0.03-1.21-0.03-1.82,0c-0.33-0.04-0.65-0.01-0.98-0.02
		c-0.22-0.01-0.22,0.01-0.22,0.23c0,0.97,0,1.94,0.01,2.91c0,0.16-0.07,0.25-0.22,0.29c-0.13-0.07-0.26-0.05-0.4-0.03
		c-0.15-0.09-0.34-0.04-0.5-0.09c-0.25-0.08-0.5-0.15-0.75-0.22c-0.09-0.08-0.19-0.12-0.3-0.15c-0.01-0.04-0.04-0.05-0.08-0.05
		c-0.02-0.05-0.06-0.07-0.11-0.07c0-0.03-0.02-0.03-0.04-0.03c-0.04-0.04-0.08-0.07-0.13-0.07c-0.02-0.04-0.05-0.06-0.09-0.07
		c-0.12-0.15-0.31-0.24-0.43-0.39c0,0,0.01,0.01,0.01,0.01c-0.06-0.06-0.11-0.14-0.2-0.16l0-0.01c0,0-0.01,0-0.01,0
		c-0.04-0.11-0.1-0.2-0.19-0.26c-0.01-0.06-0.04-0.1-0.09-0.13c0-0.03-0.01-0.04-0.03-0.05c-0.01-0.04-0.03-0.07-0.07-0.09
		c0-0.03-0.01-0.05-0.04-0.07c-0.01-0.05-0.02-0.1-0.09-0.11c-0.02-0.04-0.05-0.07-0.07-0.11c-0.05-0.19-0.11-0.38-0.22-0.54
		c0.01-0.06,0.01-0.12-0.03-0.17c-0.02-0.22-0.12-0.43-0.13-0.65c0-0.22,0-0.44,0-0.67c0.03-0.09,0.03-0.18,0.01-0.27
		c0.02-0.04,0.03-0.08,0.01-0.13c0.07-0.09,0.11-0.19,0.1-0.31c0.22-0.67,0.55-1.26,1.08-1.74c0.05-0.04,0.08-0.09,0.13-0.14
		c0.03,0,0.04-0.01,0.04-0.03c0.09-0.04,0.17-0.1,0.23-0.17c0.06,0,0.11-0.04,0.14-0.09c0.04-0.01,0.07-0.03,0.09-0.07
		c0.03,0,0.05-0.01,0.06-0.04c0.06,0,0.11-0.02,0.15-0.08c0.31-0.16,0.64-0.27,0.98-0.39c0.06,0.01,0.12,0.01,0.17-0.03
		c0.19-0.02,0.37-0.04,0.56-0.06c0.21-0.01,0.43-0.02,0.64-0.03c0.07,0.02,0.15,0.02,0.22,0c0.36,0.03,0.72,0.03,1.09,0
		c0.04,0.02,0.08,0.02,0.12,0c0.47,0.03,0.94,0.03,1.41,0c0.08,0.02,0.15,0.02,0.23,0c0.52,0.04,1.04,0.01,1.55,0.02
		c0.24,0,0.26-0.02,0.26-0.27c0-0.86,0-1.73,0-2.59c0-0.65,0.01-1.31,0.01-1.96c0-0.09,0-0.17-0.12-0.16
		c-0.06-0.04-0.12-0.03-0.18-0.01c-0.04,0-0.07-0.01-0.11-0.01c-1.68,0-3.36,0-5.03,0c-0.07,0-0.15-0.01-0.21,0.02
		c-0.11-0.02-0.21-0.02-0.31,0.01c-0.33-0.02-0.64,0.04-0.96,0.11c-0.12-0.01-0.25-0.01-0.36,0.06c-0.1-0.01-0.18,0.03-0.26,0.07
		c-0.1-0.01-0.19,0.01-0.28,0.06c-0.04-0.01-0.08,0.01-0.11,0.04c-0.04-0.01-0.08,0-0.11,0.03c-0.04-0.02-0.07-0.01-0.1,0.02
		c-0.05-0.01-0.09,0-0.12,0.04c-0.11,0-0.2,0.07-0.29,0.1c-0.1,0.01-0.18,0.05-0.26,0.11c-0.05,0-0.09,0.01-0.12,0.05
		c-0.03,0-0.06,0.01-0.09,0.03c-0.09,0.03-0.18,0.06-0.26,0.13c-0.03,0.01-0.06,0.03-0.08,0.04c-0.03-0.01-0.04,0-0.05,0.03
		c-0.04,0-0.08,0.01-0.1,0.05c-0.05,0-0.08,0.02-0.1,0.06c-0.57,0.27-1.06,0.64-1.53,1.05c-0.25,0.22-0.51,0.43-0.71,0.7
		c-0.03,0.01-0.06,0.03-0.06,0.07c-0.11,0.06-0.17,0.17-0.26,0.26l-0.02,0.01c0,0,0,0.02,0,0.02c-0.18,0.15-0.29,0.35-0.43,0.53
		c-0.84,1.1-1.35,2.34-1.56,3.71c-0.09,0.58-0.12,1.16-0.1,1.74c0.03,0.82,0.15,1.63,0.41,2.42c0.22,0.69,0.53,1.33,0.92,1.94
		c0.58,0.91,1.32,1.66,2.15,2.34c0.56,0.46,1.2,0.79,1.84,1.11c0.15,0.07,0.3,0.14,0.46,0.16c0,0,0.02,0,0.02,0
		c0.14,0.1,0.3,0.15,0.47,0.17c0.1,0.06,0.2,0.09,0.32,0.09c0.04,0.03,0.08,0.04,0.12,0.03c0.49,0.19,1,0.23,1.52,0.24
		c0.13,0.06,0.27,0.04,0.4,0.04c1.72,0,3.44,0,5.16,0c0.08,0,0.16-0.01,0.24-0.02c0.09,0.04,0.18,0.06,0.25-0.03
		c0.02,0,0.03-0.01,0.02-0.03c0.03-0.02,0.03-0.04,0.02-0.07c0-1.26,0.01-2.52,0.01-3.78c0-0.02-0.01-0.04-0.01-0.05
		c0.01-0.07,0.02-0.14,0.02-0.21C682.6,364.82,682.6,363.67,682.6,362.52z M675.18,352.8L675.18,352.8
		C675.18,352.8,675.18,352.8,675.18,352.8L675.18,352.8z"/>
	<path class="st1" d="M648.03,369.49c-0.01-1.25-0.02-2.51-0.03-3.76c0-0.17,0.07-0.38-0.04-0.5c-0.12-0.14-0.33-0.04-0.5-0.04
		c-1.74,0-3.47,0-5.21,0c-0.34,0-0.69,0.02-1.03-0.03c-0.21-0.14-0.39-0.31-0.49-0.56c0-0.06,0.01-0.13,0.01-0.19
		c0-3.8,0-7.6,0-11.39c0-0.11,0-0.22,0-0.33c0-0.11-0.05-0.17-0.16-0.18c-0.05-0.01-0.11,0-0.16,0c-1.5,0-3.01,0-4.51,0
		c-0.22,0-0.25,0.02-0.25,0.25c0,1.79,0,3.59,0.01,5.38c0,2.4,0,4.81,0.01,7.21c0,0.19,0,0.38,0.1,0.56
		c-0.01,0.04-0.01,0.08,0.02,0.12c-0.02,0.08-0.01,0.15,0.03,0.21c-0.01,0.09,0.02,0.16,0.08,0.22c-0.01,0.04,0.01,0.07,0.03,0.1
		c-0.01,0.08,0.01,0.16,0.06,0.23c0,0.06,0.03,0.1,0.07,0.14c0,0.07,0.02,0.14,0.08,0.18c-0.01,0.05,0.02,0.08,0.06,0.11
		c-0.01,0.08,0.04,0.14,0.07,0.2c0.33,0.57,0.73,1.08,1.24,1.5c0.04,0.04,0.08,0.09,0.15,0.1l0,0c0.05,0.04,0.09,0.09,0.14,0.13
		c0.77,0.59,1.64,0.94,2.6,1.02c0.81,0.07,1.63,0.04,2.45,0.01c0.09,0.03,0.18,0.02,0.27,0.02c0.84,0,1.68,0,2.53,0
		c0.09,0,0.18,0.02,0.27-0.02c0.55,0.03,1.09,0.02,1.64,0c0.09,0.03,0.18,0.03,0.28,0c0.12,0,0.21-0.02,0.18-0.17
		C648.05,369.83,648.04,369.66,648.03,369.49z"/>
	<path class="st1" d="M621.47,356.9h-5.09v-4.25c0-0.12,0.09-0.21,0.21-0.21h4.67c0.12,0,0.21,0.09,0.21,0.21V356.9z"/>
	<rect x="616.38" y="356.89" class="st3" width="5.09" height="4.46"/>
	<rect x="616.38" y="361.33" class="st4" width="5.09" height="4.46"/>
	<path class="st5" d="M621.26,370.24h-4.67c-0.12,0-0.21-0.09-0.21-0.21v-4.25h5.09v4.25C621.47,370.14,621.38,370.24,621.26,370.24
		z"/>
	<path class="st1" d="M657.89,352.38c-4.94,0-8.95,4.01-8.95,8.95s4.01,8.95,8.95,8.95c4.94,0,8.95-4.01,8.95-8.95
		S662.83,352.38,657.89,352.38z M657.89,365.2c-2.14,0-3.87-1.73-3.87-3.87c0-2.14,1.73-3.87,3.87-3.87c2.14,0,3.87,1.73,3.87,3.87
		C661.75,363.47,660.02,365.2,657.89,365.2z"/>
	<path class="st1" d="M692.45,352.38c-4.94,0-8.95,4.01-8.95,8.95s4.01,8.95,8.95,8.95c4.94,0,8.95-4.01,8.95-8.95
		S697.4,352.38,692.45,352.38z M692.45,365.2c-2.14,0-3.87-1.73-3.87-3.87c0-2.14,1.73-3.87,3.87-3.87s3.87,1.73,3.87,3.87
		C696.32,363.47,694.59,365.2,692.45,365.2z"/>
</g>
<g>
	<path class="st1" d="M608.16,352.5h1.45c1.02,0,1.45,0.45,1.45,1.09c0,0.57-0.39,0.9-0.84,1v0.01c0.54,0.1,0.99,0.44,0.99,1.05
		c0,0.64-0.42,1.17-1.46,1.17h-1.59V352.5z M609.58,354.47c0.74,0,1.18-0.27,1.18-0.86c0-0.58-0.36-0.84-1.16-0.84h-1.15v1.7H609.58
		z M609.77,356.56c0.79,0,1.15-0.33,1.15-0.9c0-0.63-0.51-0.92-1.3-0.92h-1.17v1.82H609.77z"/>
	<path class="st1" d="M613.16,354.9l-1.44-2.4h0.33l1.27,2.15l1.26-2.15h0.32l-1.44,2.4v1.92h-0.29V354.9z"/>
</g>
</svg>
