<?xml version="1.0" standalone="no"?><!-- Generator: Gravit.io --><svg xmlns="http://www.w3.org/2000/svg" xmlns:xlink="http://www.w3.org/1999/xlink" style="isolation:isolate" viewBox="0 0 230 230" width="230" height="230"><defs><clipPath id="_clipPath_3ESsI9MO5r4WEWmFwu9dtSbaTGGb3Ezj"><rect width="230" height="230"/></clipPath></defs><g clip-path="url(#_clipPath_3ESsI9MO5r4WEWmFwu9dtSbaTGGb3Ezj)"><linearGradient id="_lgradient_110" x1="0.000010349180268320879%" y1="49.99971739479481%" x2="100.00204732710402%" y2="49.99971739479481%"><stop offset="0.1281419%" stop-opacity="1" style="stop-color:rgb(49,38,133)"/><stop offset="98.07000000000001%" stop-opacity="1" style="stop-color:rgb(44,216,235)"/></linearGradient><path d=" M 1.11 114.93 C 1.15 52.24 52.29 1.15 115 1.15 C 177.7 1.15 228.85 52.24 228.89 114.93 C 228.94 177.89 177.75 228.99 114.78 228.85 C 51.94 228.71 1.07 177.72 1.11 114.93 Z  M 115.05 11.17 C 57.82 11.09 10.99 57.73 11.13 115.14 C 11.27 171.69 56.29 218.71 114.84 218.82 C 173.08 218.93 218.64 172.25 218.87 115.24 C 219.11 57.87 172.4 11.26 115.05 11.17 Z  M 110.05 113.14 C 109.99 115.98 111 118.04 112.95 119.96 C 118.96 125.9 124.86 131.94 130.83 137.92 C 139.78 146.89 148.75 155.85 157.72 164.8 C 160.3 167.38 162.85 170 165.55 172.46 C 168.64 175.27 172.76 174.2 173.93 170.4 C 174.66 168.03 173.26 166.39 171.8 164.9 C 167.59 160.61 163.3 156.39 159.05 152.14 C 146.54 139.63 134.05 127.11 121.5 114.64 C 120.39 113.54 119.87 112.49 119.88 110.92 C 119.93 97.24 119.91 83.55 119.91 69.87 C 119.91 69.01 119.93 68.14 119.8 67.3 C 119.5 65.37 118.41 64.04 116.54 63.42 C 113.16 62.31 110.16 64.58 110.13 68.45 C 110.06 76.12 110.11 83.78 110.11 91.45 C 110.11 98.67 110.21 105.91 110.05 113.14 Z  M 55.75 50.72 C 53.03 50.64 50.59 53 50.61 55.7 C 50.63 58.62 54.46 62.38 57.41 62.38 C 60.06 62.38 62.28 60.12 62.28 57.41 C 62.3 54.52 58.66 50.8 55.75 50.72 Z  M 172.59 62.37 C 175.55 62.37 179.37 58.61 179.39 55.69 C 179.41 52.99 176.98 50.64 174.25 50.72 C 171.34 50.8 167.71 54.5 167.72 57.4 C 167.72 60.11 169.94 62.38 172.59 62.37 Z  M 26.86 112.15 C 25.57 113.88 25.55 116.06 26.71 117.75 C 28.09 119.76 31.33 120.63 34.54 119.78 C 36.59 119.23 38.1 117.9 38.05 115.74 C 38.02 114.29 37.55 112.51 36.61 111.52 C 35.6 110.46 33.8 110.15 32.34 109.52 C 30.04 109.84 28.17 110.38 26.86 112.15 Z  M 203.84 113.38 C 203.04 111.33 201.42 110.2 199.27 110 C 196.82 109.78 194.36 109.77 192.74 112.16 C 191.59 113.85 191.45 115.63 192.41 117.42 C 193.58 119.62 195.62 120.07 197.69 119.95 C 202.47 119.95 205.21 116.94 203.84 113.38 Z  M 50.62 174.38 C 50.63 176.97 52.92 179.33 55.52 179.43 C 58.35 179.53 62.24 175.64 62.25 172.7 C 62.26 170.07 60.13 167.89 57.52 167.84 C 54.49 167.78 50.61 171.45 50.62 174.38 Z  M 119.88 30.96 C 119.7 27.99 117.78 26.02 115.04 26 C 112.29 25.98 110.31 27.92 110.14 30.88 C 110.08 32.02 110.06 33.18 110.24 34.3 C 110.78 37.59 114.44 39.33 117.32 37.72 C 119.47 36.52 120.03 34.54 119.88 32.17 C 119.88 31.82 119.91 31.39 119.88 30.96 Z  M 119.86 197.94 C 119.86 197.44 119.9 196.94 119.85 196.44 C 119.6 193.77 117.65 191.88 115.11 191.82 C 112.49 191.75 110.38 193.68 110.16 196.43 C 110.07 197.63 110.03 198.89 110.27 200.05 C 110.71 202.17 112.02 203.62 114.25 204.02 C 116.28 204.38 118.24 203.44 119.19 201.45 C 119.69 200.39 119.81 199.15 120.1 197.99 C 120.03 197.97 119.94 197.95 119.86 197.94 Z " fill="url(#_lgradient_110)"/></g></svg>