<?xml version="1.0" standalone="no"?><!-- Generator: Gravit.io --><svg xmlns="http://www.w3.org/2000/svg" xmlns:xlink="http://www.w3.org/1999/xlink" style="isolation:isolate" viewBox="0 0 80 80" width="80" height="80"><defs><clipPath id="_clipPath_3P0uPBSow9zrpcJmRL1bUZ0SXoD80CVr"><rect width="80" height="80"/></clipPath></defs><g clip-path="url(#_clipPath_3P0uPBSow9zrpcJmRL1bUZ0SXoD80CVr)"><path d=" M 64.174 58.761 C 64.174 57.871 64.174 57.151 64.174 56.431 C 64.184 47.621 64.194 38.811 64.204 30.001 C 64.204 28.281 64.214 28.281 65.884 28.281 C 69.384 28.271 69.384 28.271 69.384 31.761 C 69.384 41.381 69.394 51.011 69.394 60.631 C 69.394 63.141 68.594 63.951 66.104 63.971 C 63.014 63.981 59.914 64.001 56.824 63.961 C 55.824 63.951 55.474 64.251 55.494 65.291 C 55.554 68.511 55.524 71.731 55.504 74.961 C 55.494 76.951 54.584 77.871 52.574 77.871 C 38.354 77.881 24.124 77.881 9.904 77.871 C 7.824 77.871 6.844 76.861 6.844 74.771 C 6.834 60.681 6.834 46.581 6.844 32.491 C 6.844 30.201 7.864 29.201 10.154 29.191 C 13.164 29.181 16.174 29.191 19.174 29.191 C 19.634 29.191 20.104 29.191 20.744 29.191 C 20.744 27.531 20.744 26.001 20.744 24.471 C 20.744 22.491 20.734 20.521 20.744 18.541 C 20.754 16.341 21.764 15.321 23.994 15.311 C 29.104 15.291 34.224 15.311 39.334 15.311 C 45.354 15.311 51.364 15.341 57.384 15.301 C 58.434 15.291 58.854 15.581 58.784 16.681 C 58.694 17.911 58.764 19.151 58.764 20.551 C 47.834 20.551 37.034 20.551 26.144 20.551 C 26.144 23.481 26.144 26.241 26.144 28.971 C 28.504 29.291 30.864 29.461 33.144 29.941 C 44.694 32.371 53.624 42.051 55.224 53.801 C 55.404 55.111 55.364 56.461 55.544 57.771 C 55.594 58.131 56.044 58.731 56.334 58.731 C 58.854 58.791 61.394 58.761 64.174 58.761 Z  M 12.224 34.531 C 12.224 47.281 12.224 59.881 12.224 72.661 C 13.194 72.661 14.084 72.661 14.974 72.661 C 26.264 72.661 37.554 72.651 48.844 72.681 C 49.934 72.681 50.384 72.431 50.334 71.251 C 50.244 69.281 50.254 67.301 50.324 65.331 C 50.364 64.231 49.954 63.941 48.914 63.941 C 47.544 63.941 46.174 63.791 44.814 63.621 C 33.394 62.141 23.104 52.171 21.264 40.761 C 20.934 38.711 20.784 36.621 20.554 34.531 C 17.794 34.531 15.064 34.531 12.224 34.531 Z  M 26.274 34.341 C 26.144 34.731 26.094 34.811 26.084 34.891 C 26.064 35.101 26.054 35.321 26.054 35.531 C 26.204 43.781 29.754 50.211 36.504 54.861 C 40.274 57.461 44.544 58.641 49.114 58.721 C 49.504 58.731 50.244 58.331 50.244 58.131 C 50.174 56.271 49.984 54.421 49.804 52.231 C 47.014 54.081 44.284 54.841 41.334 54.561 C 38.324 54.271 35.674 53.081 33.634 50.831 C 29.254 46.001 29.184 40.711 32.354 34.941 C 30.224 34.741 28.254 34.541 26.274 34.341 Z  M 41.724 39.661 C 40.634 38.931 39.594 38.261 38.594 37.551 C 37.874 37.031 37.434 37.241 36.914 37.901 C 34.784 40.621 34.914 44.531 37.284 47.101 C 39.654 49.661 43.684 50.081 46.554 48.081 C 47.844 47.181 47.854 46.781 46.644 45.671 C 44.184 47.181 42.234 46.881 41.104 45.121 C 41.684 44.311 42.434 43.671 42.604 42.911 C 42.874 41.731 41.804 41.301 40.774 40.981 C 41.074 40.551 41.324 40.221 41.724 39.661 Z  M 73.164 13.781 C 69.254 13.781 65.424 13.781 61.594 13.781 C 61.594 17.701 61.594 21.531 61.594 25.381 C 65.494 25.381 69.294 25.381 73.164 25.381 C 73.164 21.421 73.164 17.621 73.164 13.781 Z  M 50.884 5.261 C 50.884 7.901 50.884 10.441 50.884 12.991 C 53.534 12.991 56.084 12.991 58.694 12.991 C 58.694 10.381 58.694 7.871 58.694 5.261 C 56.004 5.261 53.454 5.261 50.884 5.261 Z  M 70.534 5.201 C 70.534 2.121 70.534 2.121 67.404 2.121 C 64.254 2.121 64.254 2.121 64.254 5.291 C 64.254 8.391 64.254 8.391 67.364 8.391 C 70.534 8.391 70.534 8.391 70.534 5.201 Z " fill="rgb(237,237,237)"/></g></svg>