<?xml version="1.0" encoding="UTF-8" standalone="no"?><!-- Generator: Gravit.io --><svg xmlns="http://www.w3.org/2000/svg" xmlns:xlink="http://www.w3.org/1999/xlink" style="isolation:isolate" viewBox="0 0 286 286" width="286pt" height="286pt"><defs><clipPath id="_clipPath_1YzjcOGXnGHRlX6mQm4Ae8IguItVbw8E"><rect width="286" height="286"/></clipPath></defs><g clip-path="url(#_clipPath_1YzjcOGXnGHRlX6mQm4Ae8IguItVbw8E)"><g><path d=" M 143.027 0 C 64.04 0 0 64.04 0 143.027 C 0 222.023 64.04 286.054 143.027 286.054 C 222.014 286.054 286.054 222.023 286.054 143.027 C 286.054 64.04 222.014 0 143.027 0 Z  M 143.027 259.236 C 78.844 259.236 26.818 207.21 26.818 143.027 C 26.818 78.844 78.844 26.818 143.027 26.818 C 207.21 26.818 259.236 78.844 259.236 143.027 C 259.236 207.21 207.21 259.236 143.027 259.236 Z  M 168.352 142.938 L 193.641 117.649 C 197.127 114.163 197.127 108.504 193.641 105.018 L 180.992 92.369 C 177.497 88.883 171.847 88.874 168.352 92.369 L 143.063 117.658 L 117.792 92.387 C 114.297 88.883 108.629 88.883 105.134 92.369 L 92.485 105.018 C 88.999 108.504 88.999 114.163 92.494 117.667 L 117.765 142.938 L 92.548 168.155 C 89.053 171.65 89.053 177.3 92.548 180.804 L 105.188 193.444 C 108.683 196.93 114.342 196.93 117.828 193.444 L 143.054 168.218 L 168.459 193.632 C 171.963 197.127 177.622 197.136 181.117 193.641 L 193.757 181.001 C 197.252 177.506 197.243 171.847 193.748 168.352 C 193.748 168.352 168.352 142.938 168.352 142.938 Z " fill="rgb(179,61,61)"/></g></g></svg>