<?xml version="1.0" standalone="no"?><!-- Generator: Gravit.io --><svg xmlns="http://www.w3.org/2000/svg" xmlns:xlink="http://www.w3.org/1999/xlink" style="isolation:isolate" viewBox="0 0 512 512" width="512" height="512"><defs><clipPath id="_clipPath_JtFBHE1HQqn3MrqAFrykZIhGsu2TKkOT"><rect width="512" height="512"/></clipPath></defs><g clip-path="url(#_clipPath_JtFBHE1HQqn3MrqAFrykZIhGsu2TKkOT)"><g id="user"><g id="Group"><g id="Group"><path d=" M 256 109.168 C 213.305 109.168 178.569 143.904 178.569 186.599 C 178.569 229.294 213.305 264.03 256 264.03 C 298.695 264.03 333.431 229.294 333.431 186.599 C 333.431 143.904 298.695 109.168 256 109.168 Z  M 256 246.823 C 222.792 246.823 195.776 219.806 195.776 186.599 C 195.776 153.391 222.792 126.375 256 126.375 C 289.208 126.375 316.224 153.391 316.224 186.599 C 316.224 219.806 289.208 246.823 256 246.823 Z " fill="rgb(0,0,0)"/></g></g><g id="Group"><g id="Group"><path d=" M 352.339 314.615 C 331.14 293.091 303.037 281.237 273.207 281.237 L 238.793 281.237 C 208.963 281.237 180.86 293.091 159.661 314.615 C 138.566 336.034 126.948 364.308 126.948 394.229 C 126.948 398.98 130.8 402.832 135.552 402.832 L 376.448 402.832 C 381.2 402.832 385.052 398.98 385.052 394.229 C 385.052 364.308 373.434 336.034 352.339 314.615 Z  M 144.534 385.625 C 148.844 336.823 189.473 298.444 238.793 298.444 L 273.207 298.444 C 322.527 298.444 363.156 336.823 367.466 385.625 L 144.534 385.625 Z " fill="rgb(0,0,0)"/></g></g></g></g></svg>