<?xml version="1.0" standalone="no"?><!-- Generator: Gravit.io --><svg xmlns="http://www.w3.org/2000/svg" xmlns:xlink="http://www.w3.org/1999/xlink" style="isolation:isolate" viewBox="0 0 512 512" width="512" height="512"><defs><clipPath id="_clipPath_gi67VPQRoTbz7GM6joALH2SDPT8lhviA"><rect width="512" height="512"/></clipPath></defs><g clip-path="url(#_clipPath_gi67VPQRoTbz7GM6joALH2SDPT8lhviA)"><path d=" M 409.165 374.871 C 409.165 369.232 409.165 364.67 409.165 360.109 C 409.228 304.288 409.292 248.468 409.355 192.648 C 409.355 181.75 409.418 181.75 420 181.75 C 442.176 181.687 442.176 181.687 442.176 203.799 C 442.176 264.752 442.239 325.767 442.239 386.72 C 442.239 402.623 437.17 407.755 421.394 407.882 C 401.815 407.945 382.174 408.072 362.595 407.819 C 356.259 407.755 354.042 409.656 354.169 416.246 C 354.549 436.647 354.359 457.049 354.232 477.515 C 354.169 490.123 348.403 495.952 335.667 495.952 C 245.569 496.016 155.471 496.016 65.31 495.952 C 52.131 495.952 45.922 489.553 45.922 476.311 C 45.858 387.037 45.858 297.699 45.922 208.425 C 45.922 193.915 52.385 187.579 66.894 187.516 C 85.965 187.452 105.037 187.516 124.045 187.516 C 126.959 187.516 129.874 187.516 133.992 187.516 C 133.992 176.998 133.992 167.304 133.992 157.61 C 133.992 145.064 133.929 132.583 133.992 120.037 C 134.056 106.098 140.455 99.635 154.584 99.572 C 186.961 99.445 219.402 99.572 251.779 99.572 C 289.921 99.572 328.001 99.762 366.144 99.509 C 372.796 99.445 375.457 101.283 375.014 108.252 C 374.444 116.046 374.887 123.902 374.887 132.773 C 305.635 132.773 237.206 132.773 168.207 132.773 C 168.207 151.337 168.207 168.824 168.207 186.122 C 183.16 188.149 198.113 189.226 212.559 192.268 C 285.74 207.537 342.32 268.87 352.458 343.318 C 353.598 351.618 353.345 360.172 354.485 368.472 C 354.802 370.753 357.653 374.555 359.491 374.555 C 375.457 375.061 391.551 374.871 409.165 374.871 Z  M 80.01 221.35 C 80.01 302.134 80.01 381.968 80.01 462.942 C 86.155 462.942 91.794 462.942 97.434 462.942 C 168.967 462.942 240.501 462.879 312.034 463.069 C 318.94 463.069 321.792 461.485 321.475 454.008 C 320.904 441.526 320.968 428.981 321.411 416.499 C 321.665 409.529 319.067 407.692 312.478 407.692 C 303.797 407.692 295.117 406.742 286.5 405.664 C 214.269 396.287 149.072 333.054 137.35 260.76 C 135.259 247.771 134.309 234.529 132.852 221.287 C 115.301 221.35 98.004 221.35 80.01 221.35 Z  M 169.03 220.146 C 168.207 222.617 167.89 223.124 167.827 223.631 C 167.7 224.961 167.636 226.355 167.636 227.686 C 168.587 279.958 191.08 320.699 233.848 350.161 C 257.734 366.635 284.789 374.111 313.745 374.618 C 316.216 374.681 320.904 372.147 320.904 370.88 C 320.461 359.095 319.257 347.373 318.117 333.497 C 300.439 345.219 283.142 350.034 264.451 348.26 C 245.379 346.423 228.589 338.883 215.663 324.627 C 187.912 294.024 187.468 260.506 207.553 223.948 C 194.058 222.681 181.576 221.413 169.03 220.146 Z  M 266.922 253.854 C 260.015 249.228 253.426 244.983 247.09 240.485 C 242.528 237.19 239.74 238.521 236.446 242.702 C 222.95 259.936 223.773 284.71 238.79 300.994 C 253.806 317.214 279.34 319.875 297.525 307.203 C 305.698 301.5 305.761 298.966 298.095 291.933 C 282.508 301.5 270.153 299.6 262.993 288.448 C 266.668 283.316 271.42 279.261 272.497 274.446 C 274.208 266.969 267.429 264.245 260.902 262.217 C 262.803 259.493 264.387 257.402 266.922 253.854 Z  M 466.126 89.878 C 441.352 89.878 417.085 89.878 392.818 89.878 C 392.818 114.715 392.818 138.982 392.818 163.376 C 417.529 163.376 441.605 163.376 466.126 163.376 C 466.126 138.285 466.126 114.208 466.126 89.878 Z  M 324.96 35.895 C 324.96 52.622 324.96 68.716 324.96 84.872 C 341.75 84.872 357.907 84.872 374.444 84.872 C 374.444 68.335 374.444 52.432 374.444 35.895 C 357.4 35.895 341.243 35.895 324.96 35.895 Z  M 449.462 35.515 C 449.462 16 449.462 16 429.63 16 C 409.672 16 409.672 16 409.672 36.085 C 409.672 55.727 409.672 55.727 429.377 55.727 C 449.462 55.727 449.462 55.727 449.462 35.515 Z " fill="rgb(44,79,162)"/></g></svg>